<svg width="306" height="107" viewBox="0 0 306 107" fill="none" xmlns="http://www.w3.org/2000/svg">
<path d="M86.0625 61.0234C86.0625 59.8516 85.7734 58.8906 85.1953 58.1406C84.6328 57.375 83.1406 56.5 80.7188 55.5156C78.2969 54.5312 76.1797 53.2812 74.3672 51.7656C72.4453 50.1562 71.4844 47.8828 71.4844 44.9453C71.4844 42.0703 72.4922 39.7656 74.5078 38.0312C76.5234 36.2812 79.1172 35.4062 82.2891 35.4062C85.5547 35.4062 88.1562 36.3906 90.0938 38.3594C92.0469 40.3281 93.0234 42.8516 93.0234 45.9297H86.1328C86.1328 44.5078 85.8203 43.3359 85.1953 42.4141C84.5859 41.4922 83.5781 41.0312 82.1719 41.0312C80.875 41.0312 79.9141 41.4141 79.2891 42.1797C78.6797 42.9453 78.375 43.875 78.375 44.9688C78.375 46.0781 78.8359 47.0078 79.7578 47.7578C80.6953 48.5078 81.9297 49.2188 83.4609 49.8906C86.6484 51.0312 89.0312 52.4609 90.6094 54.1797C92.1875 55.8984 92.9766 58.1641 92.9766 60.9766C92.9766 63.9766 92.0312 66.3125 90.1406 67.9844C88.25 69.6406 85.6797 70.4688 82.4297 70.4688C80.4766 70.4688 78.5938 70.0703 76.7812 69.2734C74.9844 68.4766 73.5078 67.25 72.3516 65.5938C71.1953 63.9375 70.6172 61.8125 70.6172 59.2188H77.5312C77.5312 61.2812 77.9375 62.7344 78.75 63.5781C79.5781 64.4219 80.8047 64.8438 82.4297 64.8438C83.7578 64.8438 84.6953 64.4844 85.2422 63.7656C85.7891 63.0312 86.0625 62.1172 86.0625 61.0234ZM104.742 35.875V70H97.8516V35.875H104.742ZM133.758 52.0469V66.1328C133.039 66.8984 131.789 67.8125 130.008 68.875C128.227 69.9375 125.734 70.4688 122.531 70.4688C118.734 70.4688 115.695 69.2734 113.414 66.8828C111.148 64.4766 110.016 60.7969 110.016 55.8438V50.0547C110.016 45.0859 111.102 41.3984 113.273 38.9922C115.445 36.5859 118.391 35.3828 122.109 35.3828C125.969 35.3828 128.805 36.3516 130.617 38.2891C132.43 40.2109 133.469 43.0234 133.734 46.7266H127.055C126.867 44.5859 126.406 43.1172 125.672 42.3203C124.953 41.5078 123.828 41.1016 122.297 41.1016C120.516 41.1016 119.18 41.7656 118.289 43.0938C117.398 44.4219 116.945 46.6641 116.93 49.8203V55.8438C116.93 59.0781 117.422 61.375 118.406 62.7344C119.391 64.0781 120.898 64.75 122.93 64.75C124.148 64.75 125.031 64.5859 125.578 64.2578L126.844 63.5078V57.25H121.992V52.0469H133.758ZM162.539 35.875V70H155.648L145.57 47.6172V70H138.656V35.875H145.57L155.648 58.2812V35.875H162.539ZM194.414 35.875H201.328V59.2891C201.328 63.2422 200.273 66.0938 198.164 67.8438C196.055 69.5938 193.367 70.4688 190.102 70.4688C186.789 70.4688 184.086 69.5938 181.992 67.8438C179.898 66.0938 178.852 63.2422 178.852 59.2891V35.875H185.766V59.2891C185.766 61.5234 186.133 62.9922 186.867 63.6953C187.617 64.3984 188.695 64.75 190.102 64.75C191.523 64.75 192.594 64.3984 193.312 63.6953C194.047 62.9922 194.414 61.5234 194.414 59.2891V35.875ZM213.445 58V70H206.531V35.875H218.18C221.617 35.875 224.32 36.9453 226.289 39.0859C228.273 41.2109 229.266 43.9062 229.266 47.1719C229.266 50.4688 228.281 53.0938 226.312 55.0469C224.359 57 221.672 57.9844 218.25 58H213.445ZM213.445 41.6172V52.2578H218.18C219.617 52.2578 220.656 51.7891 221.297 50.8516C221.953 49.8984 222.281 48.6875 222.281 47.2188C222.281 45.75 221.953 44.4531 221.297 43.3281C220.656 42.1875 219.617 41.6172 218.18 41.6172H213.445Z" fill="#E5E5E5"/>
<g filter="url(#filter0_i)">
<path d="M92.0625 61.0234C92.0625 59.8516 91.7734 58.8906 91.1953 58.1406C90.6328 57.375 89.1406 56.5 86.7188 55.5156C84.2969 54.5312 82.1797 53.2812 80.3672 51.7656C78.4453 50.1562 77.4844 47.8828 77.4844 44.9453C77.4844 42.0703 78.4922 39.7656 80.5078 38.0312C82.5234 36.2812 85.1172 35.4062 88.2891 35.4062C91.5547 35.4062 94.1562 36.3906 96.0938 38.3594C98.0469 40.3281 99.0234 42.8516 99.0234 45.9297H92.1328C92.1328 44.5078 91.8203 43.3359 91.1953 42.4141C90.5859 41.4922 89.5781 41.0312 88.1719 41.0312C86.875 41.0312 85.9141 41.4141 85.2891 42.1797C84.6797 42.9453 84.375 43.875 84.375 44.9688C84.375 46.0781 84.8359 47.0078 85.7578 47.7578C86.6953 48.5078 87.9297 49.2188 89.4609 49.8906C92.6484 51.0312 95.0312 52.4609 96.6094 54.1797C98.1875 55.8984 98.9766 58.1641 98.9766 60.9766C98.9766 63.9766 98.0312 66.3125 96.1406 67.9844C94.25 69.6406 91.6797 70.4688 88.4297 70.4688C86.4766 70.4688 84.5938 70.0703 82.7812 69.2734C80.9844 68.4766 79.5078 67.25 78.3516 65.5938C77.1953 63.9375 76.6172 61.8125 76.6172 59.2188H83.5312C83.5312 61.2812 83.9375 62.7344 84.75 63.5781C85.5781 64.4219 86.8047 64.8438 88.4297 64.8438C89.7578 64.8438 90.6953 64.4844 91.2422 63.7656C91.7891 63.0312 92.0625 62.1172 92.0625 61.0234ZM110.742 35.875V70H103.852V35.875H110.742ZM139.758 52.0469V66.1328C139.039 66.8984 137.789 67.8125 136.008 68.875C134.227 69.9375 131.734 70.4688 128.531 70.4688C124.734 70.4688 121.695 69.2734 119.414 66.8828C117.148 64.4766 116.016 60.7969 116.016 55.8438V50.0547C116.016 45.0859 117.102 41.3984 119.273 38.9922C121.445 36.5859 124.391 35.3828 128.109 35.3828C131.969 35.3828 134.805 36.3516 136.617 38.2891C138.43 40.2109 139.469 43.0234 139.734 46.7266H133.055C132.867 44.5859 132.406 43.1172 131.672 42.3203C130.953 41.5078 129.828 41.1016 128.297 41.1016C126.516 41.1016 125.18 41.7656 124.289 43.0938C123.398 44.4219 122.945 46.6641 122.93 49.8203V55.8438C122.93 59.0781 123.422 61.375 124.406 62.7344C125.391 64.0781 126.898 64.75 128.93 64.75C130.148 64.75 131.031 64.5859 131.578 64.2578L132.844 63.5078V57.25H127.992V52.0469H139.758ZM168.539 35.875V70H161.648L151.57 47.6172V70H144.656V35.875H151.57L161.648 58.2812V35.875H168.539ZM200.414 35.875H207.328V59.2891C207.328 63.2422 206.273 66.0938 204.164 67.8438C202.055 69.5938 199.367 70.4688 196.102 70.4688C192.789 70.4688 190.086 69.5938 187.992 67.8438C185.898 66.0938 184.852 63.2422 184.852 59.2891V35.875H191.766V59.2891C191.766 61.5234 192.133 62.9922 192.867 63.6953C193.617 64.3984 194.695 64.75 196.102 64.75C197.523 64.75 198.594 64.3984 199.312 63.6953C200.047 62.9922 200.414 61.5234 200.414 59.2891V35.875ZM219.445 58V70H212.531V35.875H224.18C227.617 35.875 230.32 36.9453 232.289 39.0859C234.273 41.2109 235.266 43.9062 235.266 47.1719C235.266 50.4688 234.281 53.0938 232.312 55.0469C230.359 57 227.672 57.9844 224.25 58H219.445ZM219.445 41.6172V52.2578H224.18C225.617 52.2578 226.656 51.7891 227.297 50.8516C227.953 49.8984 228.281 48.6875 228.281 47.2188C228.281 45.75 227.953 44.4531 227.297 43.3281C226.656 42.1875 225.617 41.6172 224.18 41.6172H219.445Z" fill="#456252"/>
</g>
<defs>
<filter id="filter0_i" x="6" y="0" width="300" height="111" filterUnits="userSpaceOnUse" color-interpolation-filters="sRGB">
<feFlood flood-opacity="0" result="BackgroundImageFix"/>
<feBlend mode="normal" in="SourceGraphic" in2="BackgroundImageFix" result="shape"/>
<feColorMatrix in="SourceAlpha" type="matrix" values="0 0 0 0 0 0 0 0 0 0 0 0 0 0 0 0 0 0 127 0" result="hardAlpha"/>
<feOffset dy="4"/>
<feGaussianBlur stdDeviation="2"/>
<feComposite in2="hardAlpha" operator="arithmetic" k2="-1" k3="1"/>
<feColorMatrix type="matrix" values="0 0 0 0 0 0 0 0 0 0 0 0 0 0 0 0 0 0 0.25 0"/>
<feBlend mode="normal" in2="shape" result="effect1_innerShadow"/>
</filter>
</defs>
</svg>
