<svg width="21" height="21" viewBox="0 0 21 21" fill="none" xmlns="http://www.w3.org/2000/svg">
<g clip-path="url(#clip0)">
<path d="M17.2498 10.5C16.8355 10.5 16.4998 10.8358 16.4998 11.25V18.7499C16.4998 19.1641 16.164 19.4999 15.7497 19.4999H2.24997C1.83575 19.4999 1.49997 19.1641 1.49997 18.7499V3.75009C1.49997 3.33587 1.83575 3.00009 2.24997 3.00009H11.2499C11.6641 3.00009 11.9999 2.66431 11.9999 2.25008C11.9999 1.83586 11.6641 1.50012 11.2499 1.50012H2.24997C1.00735 1.50012 0 2.50747 0 3.75009V18.7499C0 19.9925 1.00735 20.9998 2.24997 20.9998H15.7498C16.9924 20.9998 17.9998 19.9925 17.9998 18.7499V11.25C17.9998 10.8358 17.664 10.5 17.2498 10.5Z" fill="#BF764C"/>
<path d="M20.1593 0.841209C19.6208 0.302623 18.8904 0.000107082 18.1288 0.000194971C17.3667 -0.00200227 16.6356 0.301041 16.0986 0.841693L6.2196 10.7198C6.13765 10.8023 6.07582 10.9027 6.03886 11.013L4.53889 15.5129C4.40798 15.9059 4.62045 16.3306 5.01345 16.4615C5.08969 16.4869 5.16954 16.4999 5.24987 16.4999C5.33038 16.4998 5.4104 16.4869 5.48687 16.4617L9.98682 14.9617C10.0973 14.9248 10.1978 14.8627 10.2801 14.7803L20.159 4.90139C21.2802 3.78028 21.2804 1.96246 20.1593 0.841209ZM19.0985 3.84162L9.34857 13.5915L6.43559 14.5642L7.40533 11.655L17.159 1.90515C17.6952 1.37 18.5638 1.37087 19.0989 1.90709C19.3546 2.16324 19.4986 2.51001 19.4997 2.87189C19.5006 3.23571 19.3562 3.58481 19.0985 3.84162Z" fill="#BF764C"/>
</g>
<defs>
<clipPath id="clip0">
<rect width="21" height="21" fill="white"/>
</clipPath>
</defs>
</svg>
