<svg width="35" height="35" viewBox="0 0 35 35" fill="none" xmlns="http://www.w3.org/2000/svg">
<circle cx="17.5" cy="17.5" r="17.5" fill="#E4D99E"/>
<g clip-path="url(#clip0)">
<path d="M24.2498 17.5C23.8355 17.5 23.4998 17.8358 23.4998 18.25V25.7499C23.4998 26.1641 23.164 26.4999 22.7497 26.4999H9.24997C8.83575 26.4999 8.49997 26.1641 8.49997 25.7499V10.7501C8.49997 10.3359 8.83575 10.0001 9.24997 10.0001H18.2499C18.6641 10.0001 18.9999 9.66431 18.9999 9.25008C18.9999 8.83586 18.6641 8.50012 18.2499 8.50012H9.24997C8.00735 8.50012 7 9.50747 7 10.7501V25.7499C7 26.9925 8.00735 27.9998 9.24997 27.9998H22.7498C23.9924 27.9998 24.9998 26.9925 24.9998 25.7499V18.25C24.9998 17.8358 24.664 17.5 24.2498 17.5Z" fill="#BF764C"/>
<path d="M27.1593 7.84121C26.6208 7.30262 25.8904 7.00011 25.1288 7.00019C24.3667 6.998 23.6356 7.30104 23.0986 7.84169L13.2196 17.7198C13.1376 17.8023 13.0758 17.9027 13.0389 18.013L11.5389 22.5129C11.408 22.9059 11.6204 23.3306 12.0134 23.4615C12.0897 23.4869 12.1695 23.4999 12.2499 23.4999C12.3304 23.4998 12.4104 23.4869 12.4869 23.4617L16.9868 21.9617C17.0973 21.9248 17.1978 21.8627 17.2801 21.7803L27.159 11.9014C28.2802 10.7803 28.2804 8.96246 27.1593 7.84121ZM26.0985 10.8416L16.3486 20.5915L13.4356 21.5642L14.4053 18.655L24.159 8.90515C24.6952 8.37 25.5638 8.37087 26.0989 8.90709C26.3546 9.16324 26.4986 9.51001 26.4997 9.87189C26.5006 10.2357 26.3562 10.5848 26.0985 10.8416Z" fill="#BF764C"/>
</g>
<defs>
<clipPath id="clip0">
<rect width="21" height="21" fill="white" transform="translate(7 7)"/>
</clipPath>
</defs>
</svg>
