<svg width="571" height="84" viewBox="0 0 571 84" fill="none" xmlns="http://www.w3.org/2000/svg">
<g filter="url(#filter0_d)">
<rect x="4" width="563" height="76" rx="11" fill="#E0A538"/>
</g>
<g clip-path="url(#clip0)">
<path d="M550.25 58.5C549.836 58.5 549.5 58.8358 549.5 59.25V66.7499C549.5 67.1641 549.164 67.4999 548.75 67.4999H535.25C534.836 67.4999 534.5 67.1641 534.5 66.7499V51.7501C534.5 51.3359 534.836 51.0001 535.25 51.0001H544.25C544.664 51.0001 545 50.6643 545 50.2501C545 49.8359 544.664 49.5001 544.25 49.5001H535.25C534.007 49.5001 533 50.5075 533 51.7501V66.7499C533 67.9925 534.007 68.9998 535.25 68.9998H548.75C549.992 68.9998 551 67.9925 551 66.7499V59.25C551 58.8358 550.664 58.5 550.25 58.5Z" fill="#BF764C"/>
<path d="M553.159 48.8412C552.621 48.3026 551.89 48.0001 551.129 48.0002C550.367 47.998 549.636 48.301 549.099 48.8417L539.22 58.7198C539.138 58.8023 539.076 58.9027 539.039 59.013L537.539 63.5129C537.408 63.9059 537.62 64.3306 538.013 64.4615C538.09 64.4869 538.17 64.4999 538.25 64.4999C538.33 64.4998 538.41 64.4869 538.487 64.4617L542.987 62.9617C543.097 62.9248 543.198 62.8627 543.28 62.7803L553.159 52.9014C554.28 51.7803 554.28 49.9625 553.159 48.8412ZM552.098 51.8416L542.349 61.5915L539.436 62.5642L540.405 59.655L550.159 49.9052C550.695 49.37 551.564 49.3709 552.099 49.9071C552.355 50.1632 552.499 50.51 552.5 50.8719C552.501 51.2357 552.356 51.5848 552.098 51.8416Z" fill="#BF764C"/>
</g>
<defs>
<filter id="filter0_d" x="0" y="0" width="571" height="84" filterUnits="userSpaceOnUse" color-interpolation-filters="sRGB">
<feFlood flood-opacity="0" result="BackgroundImageFix"/>
<feColorMatrix in="SourceAlpha" type="matrix" values="0 0 0 0 0 0 0 0 0 0 0 0 0 0 0 0 0 0 127 0"/>
<feOffset dy="4"/>
<feGaussianBlur stdDeviation="2"/>
<feColorMatrix type="matrix" values="0 0 0 0 0 0 0 0 0 0 0 0 0 0 0 0 0 0 0.25 0"/>
<feBlend mode="normal" in2="BackgroundImageFix" result="effect1_dropShadow"/>
<feBlend mode="normal" in="SourceGraphic" in2="effect1_dropShadow" result="shape"/>
</filter>
<clipPath id="clip0">
<rect width="21" height="21" fill="white" transform="translate(533 48)"/>
</clipPath>
</defs>
</svg>
