<svg width="306" height="108" viewBox="0 0 306 108" fill="none" xmlns="http://www.w3.org/2000/svg">
<g filter="url(#filter0_d)">
<path d="M77.0156 58V70H70.1016V35.875H81.75C85.1875 35.875 87.8906 36.9453 89.8594 39.0859C91.8438 41.2109 92.8359 43.9062 92.8359 47.1719C92.8359 50.4688 91.8516 53.0938 89.8828 55.0469C87.9297 57 85.2422 57.9844 81.8203 58H77.0156ZM77.0156 41.6172V52.2578H81.75C83.1875 52.2578 84.2266 51.7891 84.8672 50.8516C85.5234 49.8984 85.8516 48.6875 85.8516 47.2188C85.8516 45.75 85.5234 44.4531 84.8672 43.3281C84.2266 42.1875 83.1875 41.6172 81.75 41.6172H77.0156ZM112.922 70L107.789 57.5312H104.367V70H97.4531V35.875H108.445C111.852 35.875 114.508 36.7578 116.414 38.5234C118.32 40.2734 119.273 42.8281 119.273 46.1875C119.273 48.6562 118.836 50.6484 117.961 52.1641C117.086 53.6797 115.875 54.8516 114.328 55.6797L120.328 69.6719V70H112.922ZM104.367 41.6172V51.7891H108.258C109.633 51.7891 110.664 51.3359 111.352 50.4297C112.039 49.5078 112.383 48.2812 112.383 46.75C112.383 43.3906 111.117 41.6797 108.586 41.6172H104.367ZM148.031 55.9844C148.031 60.7969 146.906 64.4141 144.656 66.8359C142.406 69.2578 139.445 70.4688 135.773 70.4688C132.117 70.4688 129.148 69.2578 126.867 66.8359C124.586 64.4141 123.445 60.7969 123.445 55.9844V50.3125C123.445 45.3906 124.578 41.6797 126.844 39.1797C129.109 36.6641 132.07 35.4062 135.727 35.4062C139.398 35.4062 142.367 36.6641 144.633 39.1797C146.898 41.6797 148.031 45.3906 148.031 50.3125V55.9844ZM141.141 50.2656C141.141 47.0156 140.68 44.6875 139.758 43.2812C138.836 41.875 137.492 41.1719 135.727 41.1719C133.977 41.1719 132.641 41.8672 131.719 43.2578C130.812 44.6328 130.352 46.9062 130.336 50.0781V55.9844C130.336 59.0781 130.797 61.3125 131.719 62.6875C132.656 64.0469 134.008 64.7266 135.773 64.7266C137.523 64.7266 138.852 64.0547 139.758 62.7109C140.664 61.3672 141.125 59.1797 141.141 56.1484V50.2656ZM152.977 70V35.875H171.867V41.6172H159.891V50.3594H170.578V56.0781H159.891V70H152.977ZM183.047 35.875V70H176.156V35.875H183.047ZM207.82 64.2812V70H188.836V35.875H195.75V64.2812H207.82ZM211.805 70V35.875H231.352V41.6172H218.719V49.6797H229.43V55.2344H218.719V64.2812H231.398V70H211.805Z" fill="#E5E5E5"/>
</g>
<g filter="url(#filter1_d)">
<path d="M81.0156 59V71H74.1016V36.875H85.75C89.1875 36.875 91.8906 37.9453 93.8594 40.0859C95.8438 42.2109 96.8359 44.9062 96.8359 48.1719C96.8359 51.4688 95.8516 54.0938 93.8828 56.0469C91.9297 58 89.2422 58.9844 85.8203 59H81.0156ZM81.0156 42.6172V53.2578H85.75C87.1875 53.2578 88.2266 52.7891 88.8672 51.8516C89.5234 50.8984 89.8516 49.6875 89.8516 48.2188C89.8516 46.75 89.5234 45.4531 88.8672 44.3281C88.2266 43.1875 87.1875 42.6172 85.75 42.6172H81.0156ZM116.922 71L111.789 58.5312H108.367V71H101.453V36.875H112.445C115.852 36.875 118.508 37.7578 120.414 39.5234C122.32 41.2734 123.273 43.8281 123.273 47.1875C123.273 49.6562 122.836 51.6484 121.961 53.1641C121.086 54.6797 119.875 55.8516 118.328 56.6797L124.328 70.6719V71H116.922ZM108.367 42.6172V52.7891H112.258C113.633 52.7891 114.664 52.3359 115.352 51.4297C116.039 50.5078 116.383 49.2812 116.383 47.75C116.383 44.3906 115.117 42.6797 112.586 42.6172H108.367ZM152.031 56.9844C152.031 61.7969 150.906 65.4141 148.656 67.8359C146.406 70.2578 143.445 71.4688 139.773 71.4688C136.117 71.4688 133.148 70.2578 130.867 67.8359C128.586 65.4141 127.445 61.7969 127.445 56.9844V51.3125C127.445 46.3906 128.578 42.6797 130.844 40.1797C133.109 37.6641 136.07 36.4062 139.727 36.4062C143.398 36.4062 146.367 37.6641 148.633 40.1797C150.898 42.6797 152.031 46.3906 152.031 51.3125V56.9844ZM145.141 51.2656C145.141 48.0156 144.68 45.6875 143.758 44.2812C142.836 42.875 141.492 42.1719 139.727 42.1719C137.977 42.1719 136.641 42.8672 135.719 44.2578C134.812 45.6328 134.352 47.9062 134.336 51.0781V56.9844C134.336 60.0781 134.797 62.3125 135.719 63.6875C136.656 65.0469 138.008 65.7266 139.773 65.7266C141.523 65.7266 142.852 65.0547 143.758 63.7109C144.664 62.3672 145.125 60.1797 145.141 57.1484V51.2656ZM156.977 71V36.875H175.867V42.6172H163.891V51.3594H174.578V57.0781H163.891V71H156.977ZM187.047 36.875V71H180.156V36.875H187.047ZM211.82 65.2812V71H192.836V36.875H199.75V65.2812H211.82ZM215.805 71V36.875H235.352V42.6172H222.719V50.6797H233.43V56.2344H222.719V65.2812H235.398V71H215.805Z" fill="#456252"/>
</g>
<defs>
<filter id="filter0_d" x="-4" y="0" width="308" height="115" filterUnits="userSpaceOnUse" color-interpolation-filters="sRGB">
<feFlood flood-opacity="0" result="BackgroundImageFix"/>
<feColorMatrix in="SourceAlpha" type="matrix" values="0 0 0 0 0 0 0 0 0 0 0 0 0 0 0 0 0 0 127 0"/>
<feOffset dy="4"/>
<feGaussianBlur stdDeviation="2"/>
<feColorMatrix type="matrix" values="0 0 0 0 0 0 0 0 0 0 0 0 0 0 0 0 0 0 0.25 0"/>
<feBlend mode="normal" in2="BackgroundImageFix" result="effect1_dropShadow"/>
<feBlend mode="normal" in="SourceGraphic" in2="effect1_dropShadow" result="shape"/>
</filter>
<filter id="filter1_d" x="-2" y="1" width="312" height="115" filterUnits="userSpaceOnUse" color-interpolation-filters="sRGB">
<feFlood flood-opacity="0" result="BackgroundImageFix"/>
<feColorMatrix in="SourceAlpha" type="matrix" values="0 0 0 0 0 0 0 0 0 0 0 0 0 0 0 0 0 0 127 0"/>
<feOffset dy="4"/>
<feGaussianBlur stdDeviation="2"/>
<feColorMatrix type="matrix" values="0 0 0 0 0 0 0 0 0 0 0 0 0 0 0 0 0 0 0.25 0"/>
<feBlend mode="normal" in2="BackgroundImageFix" result="effect1_dropShadow"/>
<feBlend mode="normal" in="SourceGraphic" in2="effect1_dropShadow" result="shape"/>
</filter>
</defs>
</svg>
