<svg width="304" height="107" viewBox="0 0 304 107" fill="none" xmlns="http://www.w3.org/2000/svg">
<path d="M76.2422 57.3203L79.4766 35.875H86.2969L80.2266 70H73.3125L69.3281 49.8906L65.3906 70H58.4531L52.3594 35.875H59.2266L62.4375 57.2969L66.4453 35.875H72.2344L76.2422 57.3203ZM107.648 55.2344H96.9141V64.2812H109.617V70H90.0234V35.875H109.57V41.6172H96.9141V49.6797H107.648V55.2344ZM120.492 64.2812H132.586V70H113.602V35.875H120.492V64.2812ZM158.203 58.6328C158.031 62.5234 156.938 65.4688 154.922 67.4688C152.906 69.4688 150.062 70.4688 146.391 70.4688C142.531 70.4688 139.57 69.2031 137.508 66.6719C135.461 64.125 134.438 60.5 134.438 55.7969V50.0547C134.438 45.3672 135.5 41.7578 137.625 39.2266C139.75 36.6797 142.703 35.4062 146.484 35.4062C150.203 35.4062 153.023 36.4453 154.945 38.5234C156.883 40.6016 157.984 43.5859 158.25 47.4766H151.336C151.273 45.0703 150.898 43.4141 150.211 42.5078C149.539 41.5859 148.297 41.125 146.484 41.125C144.641 41.125 143.336 41.7734 142.57 43.0703C141.805 44.3516 141.398 46.4688 141.352 49.4219V55.8672C141.352 59.2578 141.727 61.5859 142.477 62.8516C143.242 64.1172 144.547 64.75 146.391 64.75C148.203 64.75 149.453 64.3125 150.141 63.4375C150.828 62.5469 151.219 60.9453 151.312 58.6328H158.203ZM186.469 56.0078C186.469 60.5859 185.383 64.1406 183.211 66.6719C181.055 69.2031 178.055 70.4688 174.211 70.4688C170.383 70.4688 167.375 69.2188 165.188 66.7188C163 64.2031 161.891 60.6875 161.859 56.1719V50.3359C161.859 45.6484 162.945 41.9922 165.117 39.3672C167.289 36.7266 170.305 35.4062 174.164 35.4062C177.961 35.4062 180.953 36.7031 183.141 39.2969C185.328 41.875 186.438 45.5 186.469 50.1719V56.0078ZM179.555 50.2891C179.555 47.2109 179.117 44.9219 178.242 43.4219C177.367 41.9219 176.008 41.1719 174.164 41.1719C172.336 41.1719 170.984 41.8984 170.109 43.3516C169.234 44.7891 168.781 46.9844 168.75 49.9375V56.0078C168.75 58.9922 169.195 61.1953 170.086 62.6172C170.977 64.0234 172.352 64.7266 174.211 64.7266C176.008 64.7266 177.344 64.0391 178.219 62.6641C179.094 61.2734 179.539 59.125 179.555 56.2188V50.2891ZM200.414 35.875L206.859 60.5547L213.281 35.875H222.281V70H215.367V60.7656L216 46.5391L209.18 70H204.492L197.672 46.5391L198.305 60.7656V70H191.414V35.875H200.414ZM245.461 55.2344H234.727V64.2812H247.43V70H227.836V35.875H247.383V41.6172H234.727V49.6797H245.461V55.2344Z" fill="#E5E5E5"/>
<g filter="url(#filter0_i)">
<path d="M80.2422 57.3203L83.4766 35.875H90.2969L84.2266 70H77.3125L73.3281 49.8906L69.3906 70H62.4531L56.3594 35.875H63.2266L66.4375 57.2969L70.4453 35.875H76.2344L80.2422 57.3203ZM111.648 55.2344H100.914V64.2812H113.617V70H94.0234V35.875H113.57V41.6172H100.914V49.6797H111.648V55.2344ZM124.492 64.2812H136.586V70H117.602V35.875H124.492V64.2812ZM162.203 58.6328C162.031 62.5234 160.938 65.4688 158.922 67.4688C156.906 69.4688 154.062 70.4688 150.391 70.4688C146.531 70.4688 143.57 69.2031 141.508 66.6719C139.461 64.125 138.438 60.5 138.438 55.7969V50.0547C138.438 45.3672 139.5 41.7578 141.625 39.2266C143.75 36.6797 146.703 35.4062 150.484 35.4062C154.203 35.4062 157.023 36.4453 158.945 38.5234C160.883 40.6016 161.984 43.5859 162.25 47.4766H155.336C155.273 45.0703 154.898 43.4141 154.211 42.5078C153.539 41.5859 152.297 41.125 150.484 41.125C148.641 41.125 147.336 41.7734 146.57 43.0703C145.805 44.3516 145.398 46.4688 145.352 49.4219V55.8672C145.352 59.2578 145.727 61.5859 146.477 62.8516C147.242 64.1172 148.547 64.75 150.391 64.75C152.203 64.75 153.453 64.3125 154.141 63.4375C154.828 62.5469 155.219 60.9453 155.312 58.6328H162.203ZM190.469 56.0078C190.469 60.5859 189.383 64.1406 187.211 66.6719C185.055 69.2031 182.055 70.4688 178.211 70.4688C174.383 70.4688 171.375 69.2188 169.188 66.7188C167 64.2031 165.891 60.6875 165.859 56.1719V50.3359C165.859 45.6484 166.945 41.9922 169.117 39.3672C171.289 36.7266 174.305 35.4062 178.164 35.4062C181.961 35.4062 184.953 36.7031 187.141 39.2969C189.328 41.875 190.438 45.5 190.469 50.1719V56.0078ZM183.555 50.2891C183.555 47.2109 183.117 44.9219 182.242 43.4219C181.367 41.9219 180.008 41.1719 178.164 41.1719C176.336 41.1719 174.984 41.8984 174.109 43.3516C173.234 44.7891 172.781 46.9844 172.75 49.9375V56.0078C172.75 58.9922 173.195 61.1953 174.086 62.6172C174.977 64.0234 176.352 64.7266 178.211 64.7266C180.008 64.7266 181.344 64.0391 182.219 62.6641C183.094 61.2734 183.539 59.125 183.555 56.2188V50.2891ZM204.414 35.875L210.859 60.5547L217.281 35.875H226.281V70H219.367V60.7656L220 46.5391L213.18 70H208.492L201.672 46.5391L202.305 60.7656V70H195.414V35.875H204.414ZM249.461 55.2344H238.727V64.2812H251.43V70H231.836V35.875H251.383V41.6172H238.727V49.6797H249.461V55.2344Z" fill="#456252"/>
</g>
<defs>
<filter id="filter0_i" x="4" y="0" width="300" height="111" filterUnits="userSpaceOnUse" color-interpolation-filters="sRGB">
<feFlood flood-opacity="0" result="BackgroundImageFix"/>
<feBlend mode="normal" in="SourceGraphic" in2="BackgroundImageFix" result="shape"/>
<feColorMatrix in="SourceAlpha" type="matrix" values="0 0 0 0 0 0 0 0 0 0 0 0 0 0 0 0 0 0 127 0" result="hardAlpha"/>
<feOffset dy="4"/>
<feGaussianBlur stdDeviation="2"/>
<feComposite in2="hardAlpha" operator="arithmetic" k2="-1" k3="1"/>
<feColorMatrix type="matrix" values="0 0 0 0 0 0 0 0 0 0 0 0 0 0 0 0 0 0 0.25 0"/>
<feBlend mode="normal" in2="shape" result="effect1_innerShadow"/>
</filter>
</defs>
</svg>
