<svg width="523" height="331" viewBox="0 0 523 331" fill="none" xmlns="http://www.w3.org/2000/svg">
<path d="M0 51H259C297.66 51 329 82.3401 329 121V141C329 157.569 315.569 171 299 171H30C13.4315 171 0 157.569 0 141V51Z" fill="#EADFCF" fill-opacity="0.7"/>
<path d="M477 303L218 303C179.34 303 148 271.66 148 233V213C148 196.431 161.431 183 178 183L447 183C463.569 183 477 196.431 477 213V303Z" fill="#DECDB4" fill-opacity="0.7"/>
<path d="M73.1562 134.047C73.1562 132.656 72.7969 131.609 72.0781 130.906C71.375 130.188 70.0859 129.445 68.2109 128.68C64.7891 127.383 62.3281 125.867 60.8281 124.133C59.3281 122.383 58.5781 120.32 58.5781 117.945C58.5781 115.07 59.5938 112.766 61.625 111.031C63.6719 109.281 66.2656 108.406 69.4062 108.406C71.5 108.406 73.3672 108.852 75.0078 109.742C76.6484 110.617 77.9062 111.859 78.7812 113.469C79.6719 115.078 80.1172 116.906 80.1172 118.953H73.25C73.25 117.359 72.9062 116.148 72.2188 115.32C71.5469 114.477 70.5703 114.055 69.2891 114.055C68.0859 114.055 67.1484 114.414 66.4766 115.133C65.8047 115.836 65.4688 116.789 65.4688 117.992C65.4688 118.93 65.8438 119.781 66.5938 120.547C67.3438 121.297 68.6719 122.078 70.5781 122.891C73.9062 124.094 76.3203 125.57 77.8203 127.32C79.3359 129.07 80.0938 131.297 80.0938 134C80.0938 136.969 79.1484 139.289 77.2578 140.961C75.3672 142.633 72.7969 143.469 69.5469 143.469C67.3438 143.469 65.3359 143.016 63.5234 142.109C61.7109 141.203 60.2891 139.906 59.2578 138.219C58.2422 136.531 57.7344 134.539 57.7344 132.242H64.6484C64.6484 134.211 65.0312 135.641 65.7969 136.531C66.5625 137.422 67.8125 137.867 69.5469 137.867C71.9531 137.867 73.1562 136.594 73.1562 134.047ZM83.5625 129.5C83.5625 125.656 84.4688 122.641 86.2812 120.453C88.0938 118.266 90.6016 117.172 93.8047 117.172C97.0391 117.172 99.5625 118.266 101.375 120.453C103.188 122.641 104.094 125.672 104.094 129.547V131.164C104.094 135.023 103.195 138.039 101.398 140.211C99.6016 142.383 97.0859 143.469 93.8516 143.469C90.6016 143.469 88.0703 142.383 86.2578 140.211C84.4609 138.023 83.5625 134.992 83.5625 131.117V129.5ZM90.2188 131.164C90.2188 135.695 91.4297 137.961 93.8516 137.961C96.0859 137.961 97.2891 136.07 97.4609 132.289L97.4844 129.5C97.4844 127.188 97.1641 125.477 96.5234 124.367C95.8828 123.242 94.9766 122.68 93.8047 122.68C92.6797 122.68 91.7969 123.242 91.1562 124.367C90.5312 125.477 90.2188 127.188 90.2188 129.5V131.164ZM117.406 137.961C119.328 137.961 120.305 136.711 120.336 134.211H126.57C126.539 136.977 125.688 139.211 124.016 140.914C122.344 142.617 120.188 143.469 117.547 143.469C114.281 143.469 111.789 142.453 110.07 140.422C108.352 138.391 107.477 135.398 107.445 131.445V129.43C107.445 125.445 108.289 122.406 109.977 120.312C111.68 118.219 114.188 117.172 117.5 117.172C120.297 117.172 122.5 118.039 124.109 119.773C125.719 121.492 126.539 123.938 126.57 127.109H120.336C120.32 125.688 120.086 124.594 119.633 123.828C119.18 123.062 118.43 122.68 117.383 122.68C116.227 122.68 115.398 123.094 114.898 123.922C114.398 124.734 114.133 126.32 114.102 128.68V131.258C114.102 133.32 114.203 134.766 114.406 135.594C114.609 136.406 114.945 137.008 115.414 137.398C115.883 137.773 116.547 137.961 117.406 137.961ZM137.281 143H130.625V117.641H137.281V143ZM130.32 111.078C130.32 110.047 130.648 109.203 131.305 108.547C131.961 107.891 132.836 107.562 133.93 107.562C135.023 107.562 135.898 107.891 136.555 108.547C137.211 109.203 137.539 110.047 137.539 111.078C137.539 112.094 137.211 112.938 136.555 113.609C135.914 114.281 135.039 114.617 133.93 114.617C132.82 114.617 131.938 114.281 131.281 113.609C130.641 112.938 130.32 112.094 130.32 111.078ZM152.656 143.469C149.25 143.469 146.594 142.453 144.688 140.422C142.781 138.391 141.828 135.484 141.828 131.703V129.688C141.828 125.688 142.703 122.602 144.453 120.43C146.203 118.258 148.711 117.172 151.977 117.172C155.164 117.172 157.562 118.195 159.172 120.242C160.781 122.273 161.602 125.289 161.633 129.289V132.547H148.438C148.531 134.422 148.945 135.797 149.68 136.672C150.414 137.531 151.547 137.961 153.078 137.961C155.297 137.961 157.148 137.203 158.633 135.688L161.234 139.695C160.422 140.82 159.242 141.734 157.695 142.438C156.148 143.125 154.469 143.469 152.656 143.469ZM148.484 127.906H155.117V127.297C155.086 125.781 154.836 124.633 154.367 123.852C153.898 123.07 153.086 122.68 151.93 122.68C150.773 122.68 149.93 123.094 149.398 123.922C148.883 124.75 148.578 126.078 148.484 127.906ZM173.094 111.406V117.641H176.492V122.633H173.094V135.219C173.094 136.219 173.227 136.906 173.492 137.281C173.773 137.656 174.305 137.844 175.086 137.844C175.727 137.844 176.25 137.789 176.656 137.68L176.609 142.836C175.484 143.258 174.266 143.469 172.953 143.469C168.672 143.469 166.508 141.016 166.461 136.109V122.633H163.531V117.641H166.461V111.406H173.094ZM188.281 131.961L191.656 117.641H198.734L190.391 146.797C189.141 151.094 186.789 153.242 183.336 153.242C182.539 153.242 181.633 153.094 180.617 152.797V147.617L181.391 147.641C182.422 147.641 183.195 147.438 183.711 147.031C184.242 146.641 184.641 145.953 184.906 144.969L185.422 143.258L178.109 117.641H185.234L188.281 131.961ZM211.859 129.5C211.859 125.656 212.766 122.641 214.578 120.453C216.391 118.266 218.898 117.172 222.102 117.172C225.336 117.172 227.859 118.266 229.672 120.453C231.484 122.641 232.391 125.672 232.391 129.547V131.164C232.391 135.023 231.492 138.039 229.695 140.211C227.898 142.383 225.383 143.469 222.148 143.469C218.898 143.469 216.367 142.383 214.555 140.211C212.758 138.023 211.859 134.992 211.859 131.117V129.5ZM218.516 131.164C218.516 135.695 219.727 137.961 222.148 137.961C224.383 137.961 225.586 136.07 225.758 132.289L225.781 129.5C225.781 127.188 225.461 125.477 224.82 124.367C224.18 123.242 223.273 122.68 222.102 122.68C220.977 122.68 220.094 123.242 219.453 124.367C218.828 125.477 218.516 127.188 218.516 129.5V131.164ZM238.062 143V122.633H234.992V117.641H238.062V115.367C238.078 112.57 238.812 110.398 240.266 108.852C241.734 107.289 243.758 106.508 246.336 106.508C247.117 106.508 248.117 106.664 249.336 106.977L249.289 112.273C248.836 112.133 248.297 112.062 247.672 112.062C245.703 112.062 244.719 113.234 244.719 115.578V117.641H248.68V122.633H244.719V143H238.062ZM358.812 143H352.156V107H358.812V143ZM363.172 129.5C363.172 125.656 364.078 122.641 365.891 120.453C367.703 118.266 370.211 117.172 373.414 117.172C376.648 117.172 379.172 118.266 380.984 120.453C382.797 122.641 383.703 125.672 383.703 129.547V131.164C383.703 135.023 382.805 138.039 381.008 140.211C379.211 142.383 376.695 143.469 373.461 143.469C370.211 143.469 367.68 142.383 365.867 140.211C364.07 138.023 363.172 134.992 363.172 131.117V129.5ZM369.828 131.164C369.828 135.695 371.039 137.961 373.461 137.961C375.695 137.961 376.898 136.07 377.07 132.289L377.094 129.5C377.094 127.188 376.773 125.477 376.133 124.367C375.492 123.242 374.586 122.68 373.414 122.68C372.289 122.68 371.406 123.242 370.766 124.367C370.141 125.477 369.828 127.188 369.828 129.5V131.164ZM395.797 133.625L399.008 117.641H405.922L398.961 143H392.633L385.648 117.641H392.586L395.797 133.625ZM418.953 143.469C415.547 143.469 412.891 142.453 410.984 140.422C409.078 138.391 408.125 135.484 408.125 131.703V129.688C408.125 125.688 409 122.602 410.75 120.43C412.5 118.258 415.008 117.172 418.273 117.172C421.461 117.172 423.859 118.195 425.469 120.242C427.078 122.273 427.898 125.289 427.93 129.289V132.547H414.734C414.828 134.422 415.242 135.797 415.977 136.672C416.711 137.531 417.844 137.961 419.375 137.961C421.594 137.961 423.445 137.203 424.93 135.688L427.531 139.695C426.719 140.82 425.539 141.734 423.992 142.438C422.445 143.125 420.766 143.469 418.953 143.469ZM414.781 127.906H421.414V127.297C421.383 125.781 421.133 124.633 420.664 123.852C420.195 123.07 419.383 122.68 418.227 122.68C417.07 122.68 416.227 123.094 415.695 123.922C415.18 124.75 414.875 126.078 414.781 127.906ZM444.195 124.039L441.992 123.852C440.18 123.852 438.953 124.648 438.312 126.242V143H431.656V117.641H437.914L438.102 120.383C439.148 118.242 440.594 117.172 442.438 117.172C443.188 117.172 443.797 117.273 444.266 117.477L444.195 124.039ZM458.844 136.203C458.844 135.641 458.57 135.125 458.023 134.656C457.492 134.172 456.297 133.523 454.438 132.711C451.703 131.602 449.82 130.453 448.789 129.266C447.773 128.078 447.266 126.602 447.266 124.836C447.266 122.617 448.062 120.789 449.656 119.352C451.266 117.898 453.391 117.172 456.031 117.172C458.812 117.172 461.039 117.891 462.711 119.328C464.383 120.766 465.219 122.695 465.219 125.117H458.586C458.586 123.055 457.727 122.023 456.008 122.023C455.305 122.023 454.727 122.242 454.273 122.68C453.82 123.117 453.594 123.727 453.594 124.508C453.594 125.07 453.844 125.57 454.344 126.008C454.844 126.43 456.023 127.039 457.883 127.836C460.586 128.836 462.492 129.953 463.602 131.188C464.727 132.406 465.289 133.992 465.289 135.945C465.289 138.211 464.438 140.031 462.734 141.406C461.031 142.781 458.797 143.469 456.031 143.469C454.172 143.469 452.531 143.109 451.109 142.391C449.688 141.656 448.57 140.641 447.758 139.344C446.961 138.047 446.562 136.648 446.562 135.148H452.867C452.898 136.305 453.164 137.172 453.664 137.75C454.18 138.328 455.016 138.617 456.172 138.617C457.953 138.617 458.844 137.812 458.844 136.203ZM22.1562 164.32V171H20.0117V153.938H25.4492C27.0352 153.938 28.2812 154.414 29.1875 155.367C30.0938 156.312 30.5469 157.574 30.5469 159.152C30.5469 160.793 30.1133 162.059 29.2461 162.949C28.3867 163.832 27.1719 164.289 25.6016 164.32H22.1562ZM22.1562 162.48H25.4492C26.4023 162.48 27.1328 162.195 27.6406 161.625C28.1484 161.055 28.4023 160.238 28.4023 159.176C28.4023 158.152 28.1406 157.332 27.6172 156.715C27.0938 156.098 26.375 155.789 25.4609 155.789H22.1562V162.48ZM32.4336 164.074C32.4336 162.23 32.8789 160.773 33.7695 159.703C34.668 158.625 35.8516 158.086 37.3203 158.086C38.7891 158.086 39.9688 158.609 40.8594 159.656C41.7578 160.703 42.2188 162.129 42.2422 163.934V165.27C42.2422 167.105 41.7969 168.559 40.9062 169.629C40.0156 170.699 38.8281 171.234 37.3438 171.234C35.875 171.234 34.6953 170.715 33.8047 169.676C32.9219 168.637 32.4648 167.23 32.4336 165.457V164.074ZM34.5078 165.27C34.5078 166.574 34.7617 167.602 35.2695 168.352C35.7852 169.094 36.4766 169.465 37.3438 169.465C39.1719 169.465 40.1133 168.145 40.168 165.504V164.074C40.168 162.777 39.9102 161.754 39.3945 161.004C38.8789 160.246 38.1875 159.867 37.3203 159.867C36.4688 159.867 35.7852 160.246 35.2695 161.004C34.7617 161.754 34.5078 162.773 34.5078 164.062V165.27ZM51.0781 167.754C51.0781 167.309 50.9102 166.926 50.5742 166.605C50.2383 166.285 49.5898 165.91 48.6289 165.48C47.5117 165.02 46.7227 164.625 46.2617 164.297C45.8086 163.969 45.4688 163.598 45.2422 163.184C45.0156 162.762 44.9023 162.262 44.9023 161.684C44.9023 160.652 45.2773 159.797 46.0273 159.117C46.7852 158.43 47.75 158.086 48.9219 158.086C50.1562 158.086 51.1484 158.445 51.8984 159.164C52.6484 159.883 53.0234 160.805 53.0234 161.93H50.9609C50.9609 161.359 50.7695 160.875 50.3867 160.477C50.0039 160.07 49.5156 159.867 48.9219 159.867C48.3125 159.867 47.832 160.027 47.4805 160.348C47.1367 160.66 46.9648 161.082 46.9648 161.613C46.9648 162.035 47.0898 162.375 47.3398 162.633C47.5977 162.891 48.2109 163.23 49.1797 163.652C50.7188 164.254 51.7656 164.844 52.3203 165.422C52.875 165.992 53.1523 166.719 53.1523 167.602C53.1523 168.703 52.7734 169.586 52.0156 170.25C51.2578 170.906 50.2422 171.234 48.9688 171.234C47.6484 171.234 46.5781 170.855 45.7578 170.098C44.9375 169.34 44.5273 168.379 44.5273 167.215H46.6133C46.6367 167.918 46.8516 168.469 47.2578 168.867C47.6641 169.266 48.2344 169.465 48.9688 169.465C49.6562 169.465 50.1797 169.312 50.5391 169.008C50.8984 168.695 51.0781 168.277 51.0781 167.754ZM58.5781 155.25V158.32H60.4883V159.996H58.5781V167.859C58.5781 168.359 58.6602 168.738 58.8242 168.996C58.9883 169.254 59.2695 169.383 59.668 169.383C59.9414 169.383 60.2188 169.336 60.5 169.242L60.4766 171C60.0078 171.156 59.5273 171.234 59.0352 171.234C58.2148 171.234 57.5898 170.941 57.1602 170.355C56.7305 169.77 56.5156 168.941 56.5156 167.871V159.996H54.582V158.32H56.5156V155.25H58.5781ZM68.0352 164.086C68.0352 162.109 68.3945 160.617 69.1133 159.609C69.832 158.594 70.9023 158.086 72.3242 158.086C73.5508 158.086 74.5039 158.578 75.1836 159.562L75.2773 158.32H77.1758V175.875H75.1016V169.887C74.4297 170.785 73.5 171.234 72.3125 171.234C70.9453 171.234 69.8945 170.738 69.1602 169.746C68.4258 168.746 68.0508 167.293 68.0352 165.387V164.086ZM70.1094 165.27C70.1094 166.691 70.3281 167.746 70.7656 168.434C71.2031 169.121 71.8984 169.465 72.8516 169.465C73.8203 169.465 74.5703 169 75.1016 168.07V161.273C74.5391 160.336 73.793 159.867 72.8633 159.867C71.9102 159.867 71.2148 160.211 70.7773 160.898C70.3398 161.586 70.1172 162.621 70.1094 164.004V165.27ZM86.9609 169.887C86.2734 170.785 85.2695 171.234 83.9492 171.234C82.8008 171.234 81.9336 170.84 81.3477 170.051C80.7617 169.254 80.4648 168.098 80.457 166.582V158.32H82.5195V166.43C82.5195 168.406 83.1133 169.395 84.3008 169.395C85.5586 169.395 86.4258 168.832 86.9023 167.707V158.32H88.9766V171H87.0078L86.9609 169.887ZM96.6289 171.234C95.0508 171.234 93.8398 170.766 92.9961 169.828C92.1523 168.883 91.7227 167.5 91.707 165.68V164.145C91.707 162.254 92.1172 160.773 92.9375 159.703C93.7656 158.625 94.918 158.086 96.3945 158.086C97.8789 158.086 98.9883 158.559 99.7227 159.504C100.457 160.449 100.832 161.922 100.848 163.922V165.281H93.7695V165.574C93.7695 166.934 94.0234 167.922 94.5312 168.539C95.0469 169.156 95.7852 169.465 96.7461 169.465C97.3555 169.465 97.8906 169.352 98.3516 169.125C98.8203 168.891 99.2578 168.523 99.6641 168.023L100.742 169.336C99.8438 170.602 98.4727 171.234 96.6289 171.234ZM96.3945 159.867C95.5352 159.867 94.8984 160.164 94.4844 160.758C94.0703 161.344 93.8359 162.258 93.7812 163.5H98.7734V163.219C98.7188 162.016 98.5 161.156 98.1172 160.641C97.7422 160.125 97.168 159.867 96.3945 159.867ZM109.508 167.754C109.508 167.309 109.34 166.926 109.004 166.605C108.668 166.285 108.02 165.91 107.059 165.48C105.941 165.02 105.152 164.625 104.691 164.297C104.238 163.969 103.898 163.598 103.672 163.184C103.445 162.762 103.332 162.262 103.332 161.684C103.332 160.652 103.707 159.797 104.457 159.117C105.215 158.43 106.18 158.086 107.352 158.086C108.586 158.086 109.578 158.445 110.328 159.164C111.078 159.883 111.453 160.805 111.453 161.93H109.391C109.391 161.359 109.199 160.875 108.816 160.477C108.434 160.07 107.945 159.867 107.352 159.867C106.742 159.867 106.262 160.027 105.91 160.348C105.566 160.66 105.395 161.082 105.395 161.613C105.395 162.035 105.52 162.375 105.77 162.633C106.027 162.891 106.641 163.23 107.609 163.652C109.148 164.254 110.195 164.844 110.75 165.422C111.305 165.992 111.582 166.719 111.582 167.602C111.582 168.703 111.203 169.586 110.445 170.25C109.688 170.906 108.672 171.234 107.398 171.234C106.078 171.234 105.008 170.855 104.188 170.098C103.367 169.34 102.957 168.379 102.957 167.215H105.043C105.066 167.918 105.281 168.469 105.688 168.867C106.094 169.266 106.664 169.465 107.398 169.465C108.086 169.465 108.609 169.312 108.969 169.008C109.328 168.695 109.508 168.277 109.508 167.754ZM117.008 155.25V158.32H118.918V159.996H117.008V167.859C117.008 168.359 117.09 168.738 117.254 168.996C117.418 169.254 117.699 169.383 118.098 169.383C118.371 169.383 118.648 169.336 118.93 169.242L118.906 171C118.438 171.156 117.957 171.234 117.465 171.234C116.645 171.234 116.02 170.941 115.59 170.355C115.16 169.77 114.945 168.941 114.945 167.871V159.996H113.012V158.32H114.945V155.25H117.008ZM123.629 171H121.555V158.32H123.629V171ZM123.793 154.957C123.793 155.309 123.695 155.602 123.5 155.836C123.305 156.07 123.008 156.188 122.609 156.188C122.219 156.188 121.926 156.07 121.73 155.836C121.535 155.602 121.438 155.309 121.438 154.957C121.438 154.605 121.535 154.309 121.73 154.066C121.926 153.824 122.219 153.703 122.609 153.703C123 153.703 123.293 153.828 123.488 154.078C123.691 154.32 123.793 154.613 123.793 154.957ZM126.465 164.074C126.465 162.23 126.91 160.773 127.801 159.703C128.699 158.625 129.883 158.086 131.352 158.086C132.82 158.086 134 158.609 134.891 159.656C135.789 160.703 136.25 162.129 136.273 163.934V165.27C136.273 167.105 135.828 168.559 134.938 169.629C134.047 170.699 132.859 171.234 131.375 171.234C129.906 171.234 128.727 170.715 127.836 169.676C126.953 168.637 126.496 167.23 126.465 165.457V164.074ZM128.539 165.27C128.539 166.574 128.793 167.602 129.301 168.352C129.816 169.094 130.508 169.465 131.375 169.465C133.203 169.465 134.145 168.145 134.199 165.504V164.074C134.199 162.777 133.941 161.754 133.426 161.004C132.91 160.246 132.219 159.867 131.352 159.867C130.5 159.867 129.816 160.246 129.301 161.004C128.793 161.754 128.539 162.773 128.539 164.062V165.27ZM140.902 158.32L140.961 159.691C141.766 158.621 142.793 158.086 144.043 158.086C146.285 158.086 147.422 159.582 147.453 162.574V171H145.391V162.668C145.391 161.676 145.223 160.973 144.887 160.559C144.559 160.137 144.062 159.926 143.398 159.926C142.883 159.926 142.418 160.098 142.004 160.441C141.598 160.785 141.27 161.234 141.02 161.789V171H138.945V158.32H140.902ZM156.734 167.754C156.734 167.309 156.566 166.926 156.23 166.605C155.895 166.285 155.246 165.91 154.285 165.48C153.168 165.02 152.379 164.625 151.918 164.297C151.465 163.969 151.125 163.598 150.898 163.184C150.672 162.762 150.559 162.262 150.559 161.684C150.559 160.652 150.934 159.797 151.684 159.117C152.441 158.43 153.406 158.086 154.578 158.086C155.812 158.086 156.805 158.445 157.555 159.164C158.305 159.883 158.68 160.805 158.68 161.93H156.617C156.617 161.359 156.426 160.875 156.043 160.477C155.66 160.07 155.172 159.867 154.578 159.867C153.969 159.867 153.488 160.027 153.137 160.348C152.793 160.66 152.621 161.082 152.621 161.613C152.621 162.035 152.746 162.375 152.996 162.633C153.254 162.891 153.867 163.23 154.836 163.652C156.375 164.254 157.422 164.844 157.977 165.422C158.531 165.992 158.809 166.719 158.809 167.602C158.809 168.703 158.43 169.586 157.672 170.25C156.914 170.906 155.898 171.234 154.625 171.234C153.305 171.234 152.234 170.855 151.414 170.098C150.594 169.34 150.184 168.379 150.184 167.215H152.27C152.293 167.918 152.508 168.469 152.914 168.867C153.32 169.266 153.891 169.465 154.625 169.465C155.312 169.465 155.836 169.312 156.195 169.008C156.555 168.695 156.734 168.277 156.734 167.754ZM166.59 164.074C166.59 162.23 167.035 160.773 167.926 159.703C168.824 158.625 170.008 158.086 171.477 158.086C172.945 158.086 174.125 158.609 175.016 159.656C175.914 160.703 176.375 162.129 176.398 163.934V165.27C176.398 167.105 175.953 168.559 175.062 169.629C174.172 170.699 172.984 171.234 171.5 171.234C170.031 171.234 168.852 170.715 167.961 169.676C167.078 168.637 166.621 167.23 166.59 165.457V164.074ZM168.664 165.27C168.664 166.574 168.918 167.602 169.426 168.352C169.941 169.094 170.633 169.465 171.5 169.465C173.328 169.465 174.27 168.145 174.324 165.504V164.074C174.324 162.777 174.066 161.754 173.551 161.004C173.035 160.246 172.344 159.867 171.477 159.867C170.625 159.867 169.941 160.246 169.426 161.004C168.918 161.754 168.664 162.773 168.664 164.062V165.27ZM184.309 160.266C184.02 160.211 183.707 160.184 183.371 160.184C182.309 160.184 181.566 160.766 181.145 161.93V171H179.07V158.32H181.086L181.121 159.609C181.676 158.594 182.461 158.086 183.477 158.086C183.805 158.086 184.078 158.141 184.297 158.25L184.309 160.266ZM194.129 171H192.055V158.32H194.129V171ZM194.293 154.957C194.293 155.309 194.195 155.602 194 155.836C193.805 156.07 193.508 156.188 193.109 156.188C192.719 156.188 192.426 156.07 192.23 155.836C192.035 155.602 191.938 155.309 191.938 154.957C191.938 154.605 192.035 154.309 192.23 154.066C192.426 153.824 192.719 153.703 193.109 153.703C193.5 153.703 193.793 153.828 193.988 154.078C194.191 154.32 194.293 154.613 194.293 154.957ZM199.355 158.32L199.414 159.691C200.219 158.621 201.246 158.086 202.496 158.086C204.738 158.086 205.875 159.582 205.906 162.574V171H203.844V162.668C203.844 161.676 203.676 160.973 203.34 160.559C203.012 160.137 202.516 159.926 201.852 159.926C201.336 159.926 200.871 160.098 200.457 160.441C200.051 160.785 199.723 161.234 199.473 161.789V171H197.398V158.32H199.355ZM208.59 164.086C208.59 162.109 208.949 160.617 209.668 159.609C210.387 158.594 211.457 158.086 212.879 158.086C214.105 158.086 215.059 158.578 215.738 159.562L215.832 158.32H217.73V175.875H215.656V169.887C214.984 170.785 214.055 171.234 212.867 171.234C211.5 171.234 210.449 170.738 209.715 169.746C208.98 168.746 208.605 167.293 208.59 165.387V164.086ZM210.664 165.27C210.664 166.691 210.883 167.746 211.32 168.434C211.758 169.121 212.453 169.465 213.406 169.465C214.375 169.465 215.125 169 215.656 168.07V161.273C215.094 160.336 214.348 159.867 213.418 159.867C212.465 159.867 211.77 160.211 211.332 160.898C210.895 161.586 210.672 162.621 210.664 164.004V165.27ZM227.516 169.887C226.828 170.785 225.824 171.234 224.504 171.234C223.355 171.234 222.488 170.84 221.902 170.051C221.316 169.254 221.02 168.098 221.012 166.582V158.32H223.074V166.43C223.074 168.406 223.668 169.395 224.855 169.395C226.113 169.395 226.98 168.832 227.457 167.707V158.32H229.531V171H227.562L227.516 169.887ZM234.887 171H232.812V158.32H234.887V171ZM235.051 154.957C235.051 155.309 234.953 155.602 234.758 155.836C234.562 156.07 234.266 156.188 233.867 156.188C233.477 156.188 233.184 156.07 232.988 155.836C232.793 155.602 232.695 155.309 232.695 154.957C232.695 154.605 232.793 154.309 232.988 154.066C233.184 153.824 233.477 153.703 233.867 153.703C234.258 153.703 234.551 153.828 234.746 154.078C234.949 154.32 235.051 154.613 235.051 154.957ZM243.395 160.266C243.105 160.211 242.793 160.184 242.457 160.184C241.395 160.184 240.652 160.766 240.23 161.93V171H238.156V158.32H240.172L240.207 159.609C240.762 158.594 241.547 158.086 242.562 158.086C242.891 158.086 243.164 158.141 243.383 158.25L243.395 160.266ZM247.707 171H245.633V158.32H247.707V171ZM247.871 154.957C247.871 155.309 247.773 155.602 247.578 155.836C247.383 156.07 247.086 156.188 246.688 156.188C246.297 156.188 246.004 156.07 245.809 155.836C245.613 155.602 245.516 155.309 245.516 154.957C245.516 154.605 245.613 154.309 245.809 154.066C246.004 153.824 246.297 153.703 246.688 153.703C247.078 153.703 247.371 153.828 247.566 154.078C247.77 154.32 247.871 154.613 247.871 154.957ZM255.512 171.234C253.934 171.234 252.723 170.766 251.879 169.828C251.035 168.883 250.605 167.5 250.59 165.68V164.145C250.59 162.254 251 160.773 251.82 159.703C252.648 158.625 253.801 158.086 255.277 158.086C256.762 158.086 257.871 158.559 258.605 159.504C259.34 160.449 259.715 161.922 259.73 163.922V165.281H252.652V165.574C252.652 166.934 252.906 167.922 253.414 168.539C253.93 169.156 254.668 169.465 255.629 169.465C256.238 169.465 256.773 169.352 257.234 169.125C257.703 168.891 258.141 168.523 258.547 168.023L259.625 169.336C258.727 170.602 257.355 171.234 255.512 171.234ZM255.277 159.867C254.418 159.867 253.781 160.164 253.367 160.758C252.953 161.344 252.719 162.258 252.664 163.5H257.656V163.219C257.602 162.016 257.383 161.156 257 160.641C256.625 160.125 256.051 159.867 255.277 159.867ZM268.391 167.754C268.391 167.309 268.223 166.926 267.887 166.605C267.551 166.285 266.902 165.91 265.941 165.48C264.824 165.02 264.035 164.625 263.574 164.297C263.121 163.969 262.781 163.598 262.555 163.184C262.328 162.762 262.215 162.262 262.215 161.684C262.215 160.652 262.59 159.797 263.34 159.117C264.098 158.43 265.062 158.086 266.234 158.086C267.469 158.086 268.461 158.445 269.211 159.164C269.961 159.883 270.336 160.805 270.336 161.93H268.273C268.273 161.359 268.082 160.875 267.699 160.477C267.316 160.07 266.828 159.867 266.234 159.867C265.625 159.867 265.145 160.027 264.793 160.348C264.449 160.66 264.277 161.082 264.277 161.613C264.277 162.035 264.402 162.375 264.652 162.633C264.91 162.891 265.523 163.23 266.492 163.652C268.031 164.254 269.078 164.844 269.633 165.422C270.188 165.992 270.465 166.719 270.465 167.602C270.465 168.703 270.086 169.586 269.328 170.25C268.57 170.906 267.555 171.234 266.281 171.234C264.961 171.234 263.891 170.855 263.07 170.098C262.25 169.34 261.84 168.379 261.84 167.215H263.926C263.949 167.918 264.164 168.469 264.57 168.867C264.977 169.266 265.547 169.465 266.281 169.465C266.969 169.465 267.492 169.312 267.852 169.008C268.211 168.695 268.391 168.277 268.391 167.754ZM285.207 171C285.082 170.727 284.992 170.266 284.938 169.617C284.203 170.695 283.266 171.234 282.125 171.234C280.977 171.234 280.078 170.914 279.43 170.273C278.789 169.625 278.469 168.715 278.469 167.543C278.469 166.254 278.906 165.23 279.781 164.473C280.656 163.715 281.855 163.328 283.379 163.312H284.902V161.965C284.902 161.207 284.734 160.668 284.398 160.348C284.062 160.027 283.551 159.867 282.863 159.867C282.238 159.867 281.73 160.055 281.34 160.43C280.949 160.797 280.754 161.266 280.754 161.836H278.68C278.68 161.188 278.871 160.57 279.254 159.984C279.637 159.391 280.152 158.926 280.801 158.59C281.449 158.254 282.172 158.086 282.969 158.086C284.266 158.086 285.25 158.41 285.922 159.059C286.602 159.699 286.949 160.637 286.965 161.871V168.27C286.973 169.246 287.105 170.094 287.363 170.812V171H285.207ZM282.441 169.348C282.949 169.348 283.434 169.207 283.895 168.926C284.355 168.645 284.691 168.293 284.902 167.871V164.848H283.73C282.746 164.863 281.969 165.086 281.398 165.516C280.828 165.938 280.543 166.531 280.543 167.297C280.543 168.016 280.688 168.539 280.977 168.867C281.266 169.188 281.754 169.348 282.441 169.348ZM299.375 165.27C299.375 167.246 299.02 168.734 298.309 169.734C297.598 170.734 296.566 171.234 295.215 171.234C293.871 171.234 292.863 170.656 292.191 169.5L292.086 171H290.199V153H292.262V159.715C292.941 158.629 293.918 158.086 295.191 158.086C296.582 158.086 297.625 158.578 298.32 159.562C299.016 160.547 299.367 162.031 299.375 164.016V165.27ZM297.312 164.086C297.312 162.586 297.102 161.52 296.68 160.887C296.266 160.246 295.59 159.926 294.652 159.926C293.582 159.926 292.785 160.504 292.262 161.66V167.695C292.777 168.836 293.582 169.406 294.676 169.406C295.613 169.406 296.285 169.078 296.691 168.422C297.098 167.766 297.305 166.746 297.312 165.363V164.086ZM301.59 164.074C301.59 162.23 302.035 160.773 302.926 159.703C303.824 158.625 305.008 158.086 306.477 158.086C307.945 158.086 309.125 158.609 310.016 159.656C310.914 160.703 311.375 162.129 311.398 163.934V165.27C311.398 167.105 310.953 168.559 310.062 169.629C309.172 170.699 307.984 171.234 306.5 171.234C305.031 171.234 303.852 170.715 302.961 169.676C302.078 168.637 301.621 167.23 301.59 165.457V164.074ZM303.664 165.27C303.664 166.574 303.918 167.602 304.426 168.352C304.941 169.094 305.633 169.465 306.5 169.465C308.328 169.465 309.27 168.145 309.324 165.504V164.074C309.324 162.777 309.066 161.754 308.551 161.004C308.035 160.246 307.344 159.867 306.477 159.867C305.625 159.867 304.941 160.246 304.426 161.004C303.918 161.754 303.664 162.773 303.664 164.062V165.27ZM320.539 169.887C319.852 170.785 318.848 171.234 317.527 171.234C316.379 171.234 315.512 170.84 314.926 170.051C314.34 169.254 314.043 168.098 314.035 166.582V158.32H316.098V166.43C316.098 168.406 316.691 169.395 317.879 169.395C319.137 169.395 320.004 168.832 320.48 167.707V158.32H322.555V171H320.586L320.539 169.887ZM328.391 155.25V158.32H330.301V159.996H328.391V167.859C328.391 168.359 328.473 168.738 328.637 168.996C328.801 169.254 329.082 169.383 329.48 169.383C329.754 169.383 330.031 169.336 330.312 169.242L330.289 171C329.82 171.156 329.34 171.234 328.848 171.234C328.027 171.234 327.402 170.941 326.973 170.355C326.543 169.77 326.328 168.941 326.328 167.871V159.996H324.395V158.32H326.328V155.25H328.391ZM341.75 167.555L344.059 158.32H346.262L342.113 172.793C341.801 173.879 341.359 174.703 340.789 175.266C340.219 175.836 339.57 176.121 338.844 176.121C338.562 176.121 338.203 176.059 337.766 175.934V174.176L338.223 174.223C338.824 174.223 339.293 174.078 339.629 173.789C339.973 173.508 340.25 173.016 340.461 172.312L340.871 170.895L337.145 158.32H339.406L341.75 167.555ZM347.668 164.074C347.668 162.23 348.113 160.773 349.004 159.703C349.902 158.625 351.086 158.086 352.555 158.086C354.023 158.086 355.203 158.609 356.094 159.656C356.992 160.703 357.453 162.129 357.477 163.934V165.27C357.477 167.105 357.031 168.559 356.141 169.629C355.25 170.699 354.062 171.234 352.578 171.234C351.109 171.234 349.93 170.715 349.039 169.676C348.156 168.637 347.699 167.23 347.668 165.457V164.074ZM349.742 165.27C349.742 166.574 349.996 167.602 350.504 168.352C351.02 169.094 351.711 169.465 352.578 169.465C354.406 169.465 355.348 168.145 355.402 165.504V164.074C355.402 162.777 355.145 161.754 354.629 161.004C354.113 160.246 353.422 159.867 352.555 159.867C351.703 159.867 351.02 160.246 350.504 161.004C349.996 161.754 349.742 162.773 349.742 164.062V165.27ZM366.617 169.887C365.93 170.785 364.926 171.234 363.605 171.234C362.457 171.234 361.59 170.84 361.004 170.051C360.418 169.254 360.121 168.098 360.113 166.582V158.32H362.176V166.43C362.176 168.406 362.77 169.395 363.957 169.395C365.215 169.395 366.082 168.832 366.559 167.707V158.32H368.633V171H366.664L366.617 169.887ZM376.988 160.266C376.699 160.211 376.387 160.184 376.051 160.184C374.988 160.184 374.246 160.766 373.824 161.93V171H371.75V158.32H373.766L373.801 159.609C374.355 158.594 375.141 158.086 376.156 158.086C376.484 158.086 376.758 158.141 376.977 158.25L376.988 160.266ZM393.734 165.27C393.734 167.277 393.371 168.773 392.645 169.758C391.926 170.742 390.906 171.234 389.586 171.234C388.312 171.234 387.332 170.754 386.645 169.793V175.875H384.582V158.32H386.457L386.562 159.727C387.258 158.633 388.254 158.086 389.551 158.086C390.941 158.086 391.98 158.57 392.668 159.539C393.355 160.508 393.711 161.957 393.734 163.887V165.27ZM391.672 164.086C391.672 162.664 391.453 161.617 391.016 160.945C390.578 160.266 389.875 159.926 388.906 159.926C387.914 159.926 387.16 160.422 386.645 161.414V168.012C387.152 168.98 387.914 169.465 388.93 169.465C389.867 169.465 390.555 169.129 390.992 168.457C391.438 167.777 391.664 166.742 391.672 165.352V164.086ZM400.941 171.234C399.363 171.234 398.152 170.766 397.309 169.828C396.465 168.883 396.035 167.5 396.02 165.68V164.145C396.02 162.254 396.43 160.773 397.25 159.703C398.078 158.625 399.23 158.086 400.707 158.086C402.191 158.086 403.301 158.559 404.035 159.504C404.77 160.449 405.145 161.922 405.16 163.922V165.281H398.082V165.574C398.082 166.934 398.336 167.922 398.844 168.539C399.359 169.156 400.098 169.465 401.059 169.465C401.668 169.465 402.203 169.352 402.664 169.125C403.133 168.891 403.57 168.523 403.977 168.023L405.055 169.336C404.156 170.602 402.785 171.234 400.941 171.234ZM400.707 159.867C399.848 159.867 399.211 160.164 398.797 160.758C398.383 161.344 398.148 162.258 398.094 163.5H403.086V163.219C403.031 162.016 402.812 161.156 402.43 160.641C402.055 160.125 401.48 159.867 400.707 159.867ZM410.375 155.25V158.32H412.285V159.996H410.375V167.859C410.375 168.359 410.457 168.738 410.621 168.996C410.785 169.254 411.066 169.383 411.465 169.383C411.738 169.383 412.016 169.336 412.297 169.242L412.273 171C411.805 171.156 411.324 171.234 410.832 171.234C410.012 171.234 409.387 170.941 408.957 170.355C408.527 169.77 408.312 168.941 408.312 167.871V159.996H406.379V158.32H408.312V155.25H410.375ZM429.723 167.355L431.645 158.32H433.695L430.59 171H428.938L426.465 161.93L424.051 171H422.387L419.305 158.32H421.344L423.312 167.133L425.668 158.32H427.309L429.723 167.355ZM438.113 171H436.039V158.32H438.113V171ZM438.277 154.957C438.277 155.309 438.18 155.602 437.984 155.836C437.789 156.07 437.492 156.188 437.094 156.188C436.703 156.188 436.41 156.07 436.215 155.836C436.02 155.602 435.922 155.309 435.922 154.957C435.922 154.605 436.02 154.309 436.215 154.066C436.41 153.824 436.703 153.703 437.094 153.703C437.484 153.703 437.777 153.828 437.973 154.078C438.176 154.32 438.277 154.613 438.277 154.957ZM444.102 155.25V158.32H446.012V159.996H444.102V167.859C444.102 168.359 444.184 168.738 444.348 168.996C444.512 169.254 444.793 169.383 445.191 169.383C445.465 169.383 445.742 169.336 446.023 169.242L446 171C445.531 171.156 445.051 171.234 444.559 171.234C443.738 171.234 443.113 170.941 442.684 170.355C442.254 169.77 442.039 168.941 442.039 167.871V159.996H440.105V158.32H442.039V155.25H444.102ZM450.559 159.621C451.348 158.598 452.355 158.086 453.582 158.086C455.824 158.086 456.961 159.582 456.992 162.574V171H454.93V162.668C454.93 161.676 454.762 160.973 454.426 160.559C454.098 160.137 453.602 159.926 452.938 159.926C452.422 159.926 451.957 160.098 451.543 160.441C451.137 160.785 450.809 161.234 450.559 161.789V171H448.484V153H450.559V159.621ZM469.062 167.555L471.371 158.32H473.574L469.426 172.793C469.113 173.879 468.672 174.703 468.102 175.266C467.531 175.836 466.883 176.121 466.156 176.121C465.875 176.121 465.516 176.059 465.078 175.934V174.176L465.535 174.223C466.137 174.223 466.605 174.078 466.941 173.789C467.285 173.508 467.562 173.016 467.773 172.312L468.184 170.895L464.457 158.32H466.719L469.062 167.555ZM474.98 164.074C474.98 162.23 475.426 160.773 476.316 159.703C477.215 158.625 478.398 158.086 479.867 158.086C481.336 158.086 482.516 158.609 483.406 159.656C484.305 160.703 484.766 162.129 484.789 163.934V165.27C484.789 167.105 484.344 168.559 483.453 169.629C482.562 170.699 481.375 171.234 479.891 171.234C478.422 171.234 477.242 170.715 476.352 169.676C475.469 168.637 475.012 167.23 474.98 165.457V164.074ZM477.055 165.27C477.055 166.574 477.309 167.602 477.816 168.352C478.332 169.094 479.023 169.465 479.891 169.465C481.719 169.465 482.66 168.145 482.715 165.504V164.074C482.715 162.777 482.457 161.754 481.941 161.004C481.426 160.246 480.734 159.867 479.867 159.867C479.016 159.867 478.332 160.246 477.816 161.004C477.309 161.754 477.055 162.773 477.055 164.062V165.27ZM493.93 169.887C493.242 170.785 492.238 171.234 490.918 171.234C489.77 171.234 488.902 170.84 488.316 170.051C487.73 169.254 487.434 168.098 487.426 166.582V158.32H489.488V166.43C489.488 168.406 490.082 169.395 491.27 169.395C492.527 169.395 493.395 168.832 493.871 167.707V158.32H495.945V171H493.977L493.93 169.887ZM504.301 160.266C504.012 160.211 503.699 160.184 503.363 160.184C502.301 160.184 501.559 160.766 501.137 161.93V171H499.062V158.32H501.078L501.113 159.609C501.668 158.594 502.453 158.086 503.469 158.086C503.797 158.086 504.07 158.141 504.289 158.25L504.301 160.266ZM24.9688 199V187.996H23.3164V186.32H24.9688V184.855C24.9922 183.566 25.3164 182.562 25.9414 181.844C26.5742 181.117 27.4648 180.754 28.6133 180.754C29.0273 180.754 29.4453 180.82 29.8672 180.953L29.7617 182.711C29.4648 182.641 29.1484 182.605 28.8125 182.605C27.6328 182.605 27.043 183.445 27.043 185.125V186.32H29.2109V187.996H27.043V199H24.9688ZM36.8867 188.266C36.5977 188.211 36.2852 188.184 35.9492 188.184C34.8867 188.184 34.1445 188.766 33.7227 189.93V199H31.6484V186.32H33.6641L33.6992 187.609C34.2539 186.594 35.0391 186.086 36.0547 186.086C36.3828 186.086 36.6562 186.141 36.875 186.25L36.8867 188.266ZM41.1992 199H39.125V186.32H41.1992V199ZM41.3633 182.957C41.3633 183.309 41.2656 183.602 41.0703 183.836C40.875 184.07 40.5781 184.188 40.1797 184.188C39.7891 184.188 39.4961 184.07 39.3008 183.836C39.1055 183.602 39.0078 183.309 39.0078 182.957C39.0078 182.605 39.1055 182.309 39.3008 182.066C39.4961 181.824 39.7891 181.703 40.1797 181.703C40.5703 181.703 40.8633 181.828 41.0586 182.078C41.2617 182.32 41.3633 182.613 41.3633 182.957ZM49.0039 199.234C47.4258 199.234 46.2148 198.766 45.3711 197.828C44.5273 196.883 44.0977 195.5 44.082 193.68V192.145C44.082 190.254 44.4922 188.773 45.3125 187.703C46.1406 186.625 47.293 186.086 48.7695 186.086C50.2539 186.086 51.3633 186.559 52.0977 187.504C52.832 188.449 53.207 189.922 53.2227 191.922V193.281H46.1445V193.574C46.1445 194.934 46.3984 195.922 46.9062 196.539C47.4219 197.156 48.1602 197.465 49.1211 197.465C49.7305 197.465 50.2656 197.352 50.7266 197.125C51.1953 196.891 51.6328 196.523 52.0391 196.023L53.1172 197.336C52.2188 198.602 50.8477 199.234 49.0039 199.234ZM48.7695 187.867C47.9102 187.867 47.2734 188.164 46.8594 188.758C46.4453 189.344 46.2109 190.258 46.1562 191.5H51.1484V191.219C51.0938 190.016 50.875 189.156 50.4922 188.641C50.1172 188.125 49.543 187.867 48.7695 187.867ZM57.6758 186.32L57.7344 187.691C58.5391 186.621 59.5664 186.086 60.8164 186.086C63.0586 186.086 64.1953 187.582 64.2266 190.574V199H62.1641V190.668C62.1641 189.676 61.9961 188.973 61.6602 188.559C61.332 188.137 60.8359 187.926 60.1719 187.926C59.6562 187.926 59.1914 188.098 58.7773 188.441C58.3711 188.785 58.043 189.234 57.793 189.789V199H55.7188V186.32H57.6758ZM66.9102 192.086C66.9102 190.133 67.2734 188.645 68 187.621C68.7344 186.598 69.7852 186.086 71.1523 186.086C72.3633 186.086 73.3086 186.578 73.9883 187.562V181H76.0625V199H74.1641L74.0586 197.641C73.3789 198.703 72.4062 199.234 71.1406 199.234C69.8281 199.234 68.7969 198.727 68.0469 197.711C67.3047 196.688 66.9258 195.246 66.9102 193.387V192.086ZM68.9844 193.27C68.9844 194.691 69.1953 195.738 69.6172 196.41C70.0391 197.074 70.7266 197.406 71.6797 197.406C72.7109 197.406 73.4805 196.887 73.9883 195.848V189.449C73.457 188.434 72.6914 187.926 71.6914 187.926C70.7383 187.926 70.0508 188.262 69.6289 188.934C69.207 189.598 68.9922 190.621 68.9844 192.004V193.27ZM85.4141 195.754C85.4141 195.309 85.2461 194.926 84.9102 194.605C84.5742 194.285 83.9258 193.91 82.9648 193.48C81.8477 193.02 81.0586 192.625 80.5977 192.297C80.1445 191.969 79.8047 191.598 79.5781 191.184C79.3516 190.762 79.2383 190.262 79.2383 189.684C79.2383 188.652 79.6133 187.797 80.3633 187.117C81.1211 186.43 82.0859 186.086 83.2578 186.086C84.4922 186.086 85.4844 186.445 86.2344 187.164C86.9844 187.883 87.3594 188.805 87.3594 189.93H85.2969C85.2969 189.359 85.1055 188.875 84.7227 188.477C84.3398 188.07 83.8516 187.867 83.2578 187.867C82.6484 187.867 82.168 188.027 81.8164 188.348C81.4727 188.66 81.3008 189.082 81.3008 189.613C81.3008 190.035 81.4258 190.375 81.6758 190.633C81.9336 190.891 82.5469 191.23 83.5156 191.652C85.0547 192.254 86.1016 192.844 86.6562 193.422C87.2109 193.992 87.4883 194.719 87.4883 195.602C87.4883 196.703 87.1094 197.586 86.3516 198.25C85.5938 198.906 84.5781 199.234 83.3047 199.234C81.9844 199.234 80.9141 198.855 80.0938 198.098C79.2734 197.34 78.8633 196.379 78.8633 195.215H80.9492C80.9727 195.918 81.1875 196.469 81.5938 196.867C82 197.266 82.5703 197.465 83.3047 197.465C83.9922 197.465 84.5156 197.312 84.875 197.008C85.2344 196.695 85.4141 196.277 85.4141 195.754ZM90.3359 197.863C90.3359 197.488 90.4453 197.176 90.6641 196.926C90.8906 196.676 91.2266 196.551 91.6719 196.551C92.1172 196.551 92.4531 196.676 92.6797 196.926C92.9141 197.176 93.0312 197.488 93.0312 197.863C93.0312 198.223 92.9141 198.523 92.6797 198.766C92.4531 199.008 92.1172 199.129 91.6719 199.129C91.2266 199.129 90.8906 199.008 90.6641 198.766C90.4453 198.523 90.3359 198.223 90.3359 197.863ZM110.234 191.465H104.469V199H102.324V181.938H111.207V183.789H104.469V189.625H110.234V191.465ZM115.801 199H113.727V186.32H115.801V199ZM115.965 182.957C115.965 183.309 115.867 183.602 115.672 183.836C115.477 184.07 115.18 184.188 114.781 184.188C114.391 184.188 114.098 184.07 113.902 183.836C113.707 183.602 113.609 183.309 113.609 182.957C113.609 182.605 113.707 182.309 113.902 182.066C114.098 181.824 114.391 181.703 114.781 181.703C115.172 181.703 115.465 181.828 115.66 182.078C115.863 182.32 115.965 182.613 115.965 182.957ZM121.027 186.32L121.086 187.691C121.891 186.621 122.918 186.086 124.168 186.086C126.41 186.086 127.547 187.582 127.578 190.574V199H125.516V190.668C125.516 189.676 125.348 188.973 125.012 188.559C124.684 188.137 124.188 187.926 123.523 187.926C123.008 187.926 122.543 188.098 122.129 188.441C121.723 188.785 121.395 189.234 121.145 189.789V199H119.07V186.32H121.027ZM130.262 192.086C130.262 190.133 130.625 188.645 131.352 187.621C132.086 186.598 133.137 186.086 134.504 186.086C135.715 186.086 136.66 186.578 137.34 187.562V181H139.414V199H137.516L137.41 197.641C136.73 198.703 135.758 199.234 134.492 199.234C133.18 199.234 132.148 198.727 131.398 197.711C130.656 196.688 130.277 195.246 130.262 193.387V192.086ZM132.336 193.27C132.336 194.691 132.547 195.738 132.969 196.41C133.391 197.074 134.078 197.406 135.031 197.406C136.062 197.406 136.832 196.887 137.34 195.848V189.449C136.809 188.434 136.043 187.926 135.043 187.926C134.09 187.926 133.402 188.262 132.98 188.934C132.559 189.598 132.344 190.621 132.336 192.004V193.27ZM154.637 199C154.512 198.727 154.422 198.266 154.367 197.617C153.633 198.695 152.695 199.234 151.555 199.234C150.406 199.234 149.508 198.914 148.859 198.273C148.219 197.625 147.898 196.715 147.898 195.543C147.898 194.254 148.336 193.23 149.211 192.473C150.086 191.715 151.285 191.328 152.809 191.312H154.332V189.965C154.332 189.207 154.164 188.668 153.828 188.348C153.492 188.027 152.98 187.867 152.293 187.867C151.668 187.867 151.16 188.055 150.77 188.43C150.379 188.797 150.184 189.266 150.184 189.836H148.109C148.109 189.188 148.301 188.57 148.684 187.984C149.066 187.391 149.582 186.926 150.23 186.59C150.879 186.254 151.602 186.086 152.398 186.086C153.695 186.086 154.68 186.41 155.352 187.059C156.031 187.699 156.379 188.637 156.395 189.871V196.27C156.402 197.246 156.535 198.094 156.793 198.812V199H154.637ZM151.871 197.348C152.379 197.348 152.863 197.207 153.324 196.926C153.785 196.645 154.121 196.293 154.332 195.871V192.848H153.16C152.176 192.863 151.398 193.086 150.828 193.516C150.258 193.938 149.973 194.531 149.973 195.297C149.973 196.016 150.117 196.539 150.406 196.867C150.695 197.188 151.184 197.348 151.871 197.348ZM166.039 199V187.996H164.387V186.32H166.039V184.855C166.062 183.566 166.387 182.562 167.012 181.844C167.645 181.117 168.535 180.754 169.684 180.754C170.098 180.754 170.516 180.82 170.938 180.953L170.832 182.711C170.535 182.641 170.219 182.605 169.883 182.605C168.703 182.605 168.113 183.445 168.113 185.125V186.32H170.281V187.996H168.113V199H166.039ZM177.957 188.266C177.668 188.211 177.355 188.184 177.02 188.184C175.957 188.184 175.215 188.766 174.793 189.93V199H172.719V186.32H174.734L174.77 187.609C175.324 186.594 176.109 186.086 177.125 186.086C177.453 186.086 177.727 186.141 177.945 186.25L177.957 188.266ZM182.27 199H180.195V186.32H182.27V199ZM182.434 182.957C182.434 183.309 182.336 183.602 182.141 183.836C181.945 184.07 181.648 184.188 181.25 184.188C180.859 184.188 180.566 184.07 180.371 183.836C180.176 183.602 180.078 183.309 180.078 182.957C180.078 182.605 180.176 182.309 180.371 182.066C180.566 181.824 180.859 181.703 181.25 181.703C181.641 181.703 181.934 181.828 182.129 182.078C182.332 182.32 182.434 182.613 182.434 182.957ZM190.074 199.234C188.496 199.234 187.285 198.766 186.441 197.828C185.598 196.883 185.168 195.5 185.152 193.68V192.145C185.152 190.254 185.562 188.773 186.383 187.703C187.211 186.625 188.363 186.086 189.84 186.086C191.324 186.086 192.434 186.559 193.168 187.504C193.902 188.449 194.277 189.922 194.293 191.922V193.281H187.215V193.574C187.215 194.934 187.469 195.922 187.977 196.539C188.492 197.156 189.23 197.465 190.191 197.465C190.801 197.465 191.336 197.352 191.797 197.125C192.266 196.891 192.703 196.523 193.109 196.023L194.188 197.336C193.289 198.602 191.918 199.234 190.074 199.234ZM189.84 187.867C188.98 187.867 188.344 188.164 187.93 188.758C187.516 189.344 187.281 190.258 187.227 191.5H192.219V191.219C192.164 190.016 191.945 189.156 191.562 188.641C191.188 188.125 190.613 187.867 189.84 187.867ZM198.746 186.32L198.805 187.691C199.609 186.621 200.637 186.086 201.887 186.086C204.129 186.086 205.266 187.582 205.297 190.574V199H203.234V190.668C203.234 189.676 203.066 188.973 202.73 188.559C202.402 188.137 201.906 187.926 201.242 187.926C200.727 187.926 200.262 188.098 199.848 188.441C199.441 188.785 199.113 189.234 198.863 189.789V199H196.789V186.32H198.746ZM207.98 192.086C207.98 190.133 208.344 188.645 209.07 187.621C209.805 186.598 210.855 186.086 212.223 186.086C213.434 186.086 214.379 186.578 215.059 187.562V181H217.133V199H215.234L215.129 197.641C214.449 198.703 213.477 199.234 212.211 199.234C210.898 199.234 209.867 198.727 209.117 197.711C208.375 196.688 207.996 195.246 207.98 193.387V192.086ZM210.055 193.27C210.055 194.691 210.266 195.738 210.688 196.41C211.109 197.074 211.797 197.406 212.75 197.406C213.781 197.406 214.551 196.887 215.059 195.848V189.449C214.527 188.434 213.762 187.926 212.762 187.926C211.809 187.926 211.121 188.262 210.699 188.934C210.277 189.598 210.062 190.621 210.055 192.004V193.27ZM226.484 195.754C226.484 195.309 226.316 194.926 225.98 194.605C225.645 194.285 224.996 193.91 224.035 193.48C222.918 193.02 222.129 192.625 221.668 192.297C221.215 191.969 220.875 191.598 220.648 191.184C220.422 190.762 220.309 190.262 220.309 189.684C220.309 188.652 220.684 187.797 221.434 187.117C222.191 186.43 223.156 186.086 224.328 186.086C225.562 186.086 226.555 186.445 227.305 187.164C228.055 187.883 228.43 188.805 228.43 189.93H226.367C226.367 189.359 226.176 188.875 225.793 188.477C225.41 188.07 224.922 187.867 224.328 187.867C223.719 187.867 223.238 188.027 222.887 188.348C222.543 188.66 222.371 189.082 222.371 189.613C222.371 190.035 222.496 190.375 222.746 190.633C223.004 190.891 223.617 191.23 224.586 191.652C226.125 192.254 227.172 192.844 227.727 193.422C228.281 193.992 228.559 194.719 228.559 195.602C228.559 196.703 228.18 197.586 227.422 198.25C226.664 198.906 225.648 199.234 224.375 199.234C223.055 199.234 221.984 198.855 221.164 198.098C220.344 197.34 219.934 196.379 219.934 195.215H222.02C222.043 195.918 222.258 196.469 222.664 196.867C223.07 197.266 223.641 197.465 224.375 197.465C225.062 197.465 225.586 197.312 225.945 197.008C226.305 196.695 226.484 196.277 226.484 195.754ZM246.23 195.355L248.152 186.32H250.203L247.098 199H245.445L242.973 189.93L240.559 199H238.895L235.812 186.32H237.852L239.82 195.133L242.176 186.32H243.816L246.23 195.355ZM254.457 187.621C255.246 186.598 256.254 186.086 257.48 186.086C259.723 186.086 260.859 187.582 260.891 190.574V199H258.828V190.668C258.828 189.676 258.66 188.973 258.324 188.559C257.996 188.137 257.5 187.926 256.836 187.926C256.32 187.926 255.855 188.098 255.441 188.441C255.035 188.785 254.707 189.234 254.457 189.789V199H252.383V181H254.457V187.621ZM263.551 192.074C263.551 190.23 263.996 188.773 264.887 187.703C265.785 186.625 266.969 186.086 268.438 186.086C269.906 186.086 271.086 186.609 271.977 187.656C272.875 188.703 273.336 190.129 273.359 191.934V193.27C273.359 195.105 272.914 196.559 272.023 197.629C271.133 198.699 269.945 199.234 268.461 199.234C266.992 199.234 265.812 198.715 264.922 197.676C264.039 196.637 263.582 195.23 263.551 193.457V192.074ZM265.625 193.27C265.625 194.574 265.879 195.602 266.387 196.352C266.902 197.094 267.594 197.465 268.461 197.465C270.289 197.465 271.23 196.145 271.285 193.504V192.074C271.285 190.777 271.027 189.754 270.512 189.004C269.996 188.246 269.305 187.867 268.438 187.867C267.586 187.867 266.902 188.246 266.387 189.004C265.879 189.754 265.625 190.773 265.625 192.062V193.27ZM283.777 199H281.703V181H283.777V199ZM286.613 192.074C286.613 190.23 287.059 188.773 287.949 187.703C288.848 186.625 290.031 186.086 291.5 186.086C292.969 186.086 294.148 186.609 295.039 187.656C295.938 188.703 296.398 190.129 296.422 191.934V193.27C296.422 195.105 295.977 196.559 295.086 197.629C294.195 198.699 293.008 199.234 291.523 199.234C290.055 199.234 288.875 198.715 287.984 197.676C287.102 196.637 286.645 195.23 286.613 193.457V192.074ZM288.688 193.27C288.688 194.574 288.941 195.602 289.449 196.352C289.965 197.094 290.656 197.465 291.523 197.465C293.352 197.465 294.293 196.145 294.348 193.504V192.074C294.348 190.777 294.09 189.754 293.574 189.004C293.059 188.246 292.367 187.867 291.5 187.867C290.648 187.867 289.965 188.246 289.449 189.004C288.941 189.754 288.688 190.773 288.688 192.062V193.27ZM302.504 195.848L304.906 186.32H307.016L303.254 199H301.707L297.898 186.32H300.008L302.504 195.848ZM313.543 199.234C311.965 199.234 310.754 198.766 309.91 197.828C309.066 196.883 308.637 195.5 308.621 193.68V192.145C308.621 190.254 309.031 188.773 309.852 187.703C310.68 186.625 311.832 186.086 313.309 186.086C314.793 186.086 315.902 186.559 316.637 187.504C317.371 188.449 317.746 189.922 317.762 191.922V193.281H310.684V193.574C310.684 194.934 310.938 195.922 311.445 196.539C311.961 197.156 312.699 197.465 313.66 197.465C314.27 197.465 314.805 197.352 315.266 197.125C315.734 196.891 316.172 196.523 316.578 196.023L317.656 197.336C316.758 198.602 315.387 199.234 313.543 199.234ZM313.309 187.867C312.449 187.867 311.812 188.164 311.398 188.758C310.984 189.344 310.75 190.258 310.695 191.5H315.688V191.219C315.633 190.016 315.414 189.156 315.031 188.641C314.656 188.125 314.082 187.867 313.309 187.867ZM326.422 195.754C326.422 195.309 326.254 194.926 325.918 194.605C325.582 194.285 324.934 193.91 323.973 193.48C322.855 193.02 322.066 192.625 321.605 192.297C321.152 191.969 320.812 191.598 320.586 191.184C320.359 190.762 320.246 190.262 320.246 189.684C320.246 188.652 320.621 187.797 321.371 187.117C322.129 186.43 323.094 186.086 324.266 186.086C325.5 186.086 326.492 186.445 327.242 187.164C327.992 187.883 328.367 188.805 328.367 189.93H326.305C326.305 189.359 326.113 188.875 325.73 188.477C325.348 188.07 324.859 187.867 324.266 187.867C323.656 187.867 323.176 188.027 322.824 188.348C322.48 188.66 322.309 189.082 322.309 189.613C322.309 190.035 322.434 190.375 322.684 190.633C322.941 190.891 323.555 191.23 324.523 191.652C326.062 192.254 327.109 192.844 327.664 193.422C328.219 193.992 328.496 194.719 328.496 195.602C328.496 196.703 328.117 197.586 327.359 198.25C326.602 198.906 325.586 199.234 324.312 199.234C322.992 199.234 321.922 198.855 321.102 198.098C320.281 197.34 319.871 196.379 319.871 195.215H321.957C321.98 195.918 322.195 196.469 322.602 196.867C323.008 197.266 323.578 197.465 324.312 197.465C325 197.465 325.523 197.312 325.883 197.008C326.242 196.695 326.422 196.277 326.422 195.754ZM345.875 193.27C345.875 195.277 345.512 196.773 344.785 197.758C344.066 198.742 343.047 199.234 341.727 199.234C340.453 199.234 339.473 198.754 338.785 197.793V203.875H336.723V186.32H338.598L338.703 187.727C339.398 186.633 340.395 186.086 341.691 186.086C343.082 186.086 344.121 186.57 344.809 187.539C345.496 188.508 345.852 189.957 345.875 191.887V193.27ZM343.812 192.086C343.812 190.664 343.594 189.617 343.156 188.945C342.719 188.266 342.016 187.926 341.047 187.926C340.055 187.926 339.301 188.422 338.785 189.414V196.012C339.293 196.98 340.055 197.465 341.07 197.465C342.008 197.465 342.695 197.129 343.133 196.457C343.578 195.777 343.805 194.742 343.812 193.352V192.086ZM353.082 199.234C351.504 199.234 350.293 198.766 349.449 197.828C348.605 196.883 348.176 195.5 348.16 193.68V192.145C348.16 190.254 348.57 188.773 349.391 187.703C350.219 186.625 351.371 186.086 352.848 186.086C354.332 186.086 355.441 186.559 356.176 187.504C356.91 188.449 357.285 189.922 357.301 191.922V193.281H350.223V193.574C350.223 194.934 350.477 195.922 350.984 196.539C351.5 197.156 352.238 197.465 353.199 197.465C353.809 197.465 354.344 197.352 354.805 197.125C355.273 196.891 355.711 196.523 356.117 196.023L357.195 197.336C356.297 198.602 354.926 199.234 353.082 199.234ZM352.848 187.867C351.988 187.867 351.352 188.164 350.938 188.758C350.523 189.344 350.289 190.258 350.234 191.5H355.227V191.219C355.172 190.016 354.953 189.156 354.57 188.641C354.195 188.125 353.621 187.867 352.848 187.867ZM362.516 183.25V186.32H364.426V187.996H362.516V195.859C362.516 196.359 362.598 196.738 362.762 196.996C362.926 197.254 363.207 197.383 363.605 197.383C363.879 197.383 364.156 197.336 364.438 197.242L364.414 199C363.945 199.156 363.465 199.234 362.973 199.234C362.152 199.234 361.527 198.941 361.098 198.355C360.668 197.77 360.453 196.941 360.453 195.871V187.996H358.52V186.32H360.453V183.25H362.516ZM373.062 195.754C373.062 195.309 372.895 194.926 372.559 194.605C372.223 194.285 371.574 193.91 370.613 193.48C369.496 193.02 368.707 192.625 368.246 192.297C367.793 191.969 367.453 191.598 367.227 191.184C367 190.762 366.887 190.262 366.887 189.684C366.887 188.652 367.262 187.797 368.012 187.117C368.77 186.43 369.734 186.086 370.906 186.086C372.141 186.086 373.133 186.445 373.883 187.164C374.633 187.883 375.008 188.805 375.008 189.93H372.945C372.945 189.359 372.754 188.875 372.371 188.477C371.988 188.07 371.5 187.867 370.906 187.867C370.297 187.867 369.816 188.027 369.465 188.348C369.121 188.66 368.949 189.082 368.949 189.613C368.949 190.035 369.074 190.375 369.324 190.633C369.582 190.891 370.195 191.23 371.164 191.652C372.703 192.254 373.75 192.844 374.305 193.422C374.859 193.992 375.137 194.719 375.137 195.602C375.137 196.703 374.758 197.586 374 198.25C373.242 198.906 372.227 199.234 370.953 199.234C369.633 199.234 368.562 198.855 367.742 198.098C366.922 197.34 366.512 196.379 366.512 195.215H368.598C368.621 195.918 368.836 196.469 369.242 196.867C369.648 197.266 370.219 197.465 370.953 197.465C371.641 197.465 372.164 197.312 372.523 197.008C372.883 196.695 373.062 196.277 373.062 195.754ZM385.473 186.32V200.594C385.449 202.945 384.52 204.121 382.684 204.121C382.262 204.121 381.883 204.051 381.547 203.91L381.535 202.176C381.746 202.238 382.016 202.27 382.344 202.27C382.695 202.27 382.957 202.137 383.129 201.871C383.309 201.613 383.398 201.16 383.398 200.512V186.32H385.473ZM385.566 182.957C385.566 183.309 385.469 183.602 385.273 183.836C385.078 184.07 384.781 184.188 384.383 184.188C383.992 184.188 383.699 184.07 383.504 183.836C383.316 183.602 383.223 183.309 383.223 182.957C383.223 182.605 383.316 182.309 383.504 182.066C383.699 181.824 383.992 181.703 384.383 181.703C384.773 181.703 385.066 181.828 385.262 182.078C385.465 182.32 385.566 182.613 385.566 182.957ZM395.188 197.887C394.5 198.785 393.496 199.234 392.176 199.234C391.027 199.234 390.16 198.84 389.574 198.051C388.988 197.254 388.691 196.098 388.684 194.582V186.32H390.746V194.43C390.746 196.406 391.34 197.395 392.527 197.395C393.785 197.395 394.652 196.832 395.129 195.707V186.32H397.203V199H395.234L395.188 197.887ZM406.484 195.754C406.484 195.309 406.316 194.926 405.98 194.605C405.645 194.285 404.996 193.91 404.035 193.48C402.918 193.02 402.129 192.625 401.668 192.297C401.215 191.969 400.875 191.598 400.648 191.184C400.422 190.762 400.309 190.262 400.309 189.684C400.309 188.652 400.684 187.797 401.434 187.117C402.191 186.43 403.156 186.086 404.328 186.086C405.562 186.086 406.555 186.445 407.305 187.164C408.055 187.883 408.43 188.805 408.43 189.93H406.367C406.367 189.359 406.176 188.875 405.793 188.477C405.41 188.07 404.922 187.867 404.328 187.867C403.719 187.867 403.238 188.027 402.887 188.348C402.543 188.66 402.371 189.082 402.371 189.613C402.371 190.035 402.496 190.375 402.746 190.633C403.004 190.891 403.617 191.23 404.586 191.652C406.125 192.254 407.172 192.844 407.727 193.422C408.281 193.992 408.559 194.719 408.559 195.602C408.559 196.703 408.18 197.586 407.422 198.25C406.664 198.906 405.648 199.234 404.375 199.234C403.055 199.234 401.984 198.855 401.164 198.098C400.344 197.34 399.934 196.379 399.934 195.215H402.02C402.043 195.918 402.258 196.469 402.664 196.867C403.07 197.266 403.641 197.465 404.375 197.465C405.062 197.465 405.586 197.312 405.945 197.008C406.305 196.695 406.484 196.277 406.484 195.754ZM413.984 183.25V186.32H415.895V187.996H413.984V195.859C413.984 196.359 414.066 196.738 414.23 196.996C414.395 197.254 414.676 197.383 415.074 197.383C415.348 197.383 415.625 197.336 415.906 197.242L415.883 199C415.414 199.156 414.934 199.234 414.441 199.234C413.621 199.234 412.996 198.941 412.566 198.355C412.137 197.77 411.922 196.941 411.922 195.871V187.996H409.988V186.32H411.922V183.25H413.984ZM426.113 199H424.039V181H426.113V199ZM431.621 199H429.547V186.32H431.621V199ZM431.785 182.957C431.785 183.309 431.688 183.602 431.492 183.836C431.297 184.07 431 184.188 430.602 184.188C430.211 184.188 429.918 184.07 429.723 183.836C429.527 183.602 429.43 183.309 429.43 182.957C429.43 182.605 429.527 182.309 429.723 182.066C429.918 181.824 430.211 181.703 430.602 181.703C430.992 181.703 431.285 181.828 431.48 182.078C431.684 182.32 431.785 182.613 431.785 182.957ZM438.078 193.199L436.977 194.465V199H434.902V181H436.977V191.77L440.926 186.32H443.41L439.379 191.617L443.938 199H441.523L438.078 193.199ZM450.02 199.234C448.441 199.234 447.23 198.766 446.387 197.828C445.543 196.883 445.113 195.5 445.098 193.68V192.145C445.098 190.254 445.508 188.773 446.328 187.703C447.156 186.625 448.309 186.086 449.785 186.086C451.27 186.086 452.379 186.559 453.113 187.504C453.848 188.449 454.223 189.922 454.238 191.922V193.281H447.16V193.574C447.16 194.934 447.414 195.922 447.922 196.539C448.438 197.156 449.176 197.465 450.137 197.465C450.746 197.465 451.281 197.352 451.742 197.125C452.211 196.891 452.648 196.523 453.055 196.023L454.133 197.336C453.234 198.602 451.863 199.234 450.02 199.234ZM449.785 187.867C448.926 187.867 448.289 188.164 447.875 188.758C447.461 189.344 447.227 190.258 447.172 191.5H452.164V191.219C452.109 190.016 451.891 189.156 451.508 188.641C451.133 188.125 450.559 187.867 449.785 187.867ZM465.711 195.555L468.02 186.32H470.223L466.074 200.793C465.762 201.879 465.32 202.703 464.75 203.266C464.18 203.836 463.531 204.121 462.805 204.121C462.523 204.121 462.164 204.059 461.727 203.934V202.176L462.184 202.223C462.785 202.223 463.254 202.078 463.59 201.789C463.934 201.508 464.211 201.016 464.422 200.312L464.832 198.895L461.105 186.32H463.367L465.711 195.555ZM471.629 192.074C471.629 190.23 472.074 188.773 472.965 187.703C473.863 186.625 475.047 186.086 476.516 186.086C477.984 186.086 479.164 186.609 480.055 187.656C480.953 188.703 481.414 190.129 481.438 191.934V193.27C481.438 195.105 480.992 196.559 480.102 197.629C479.211 198.699 478.023 199.234 476.539 199.234C475.07 199.234 473.891 198.715 473 197.676C472.117 196.637 471.66 195.23 471.629 193.457V192.074ZM473.703 193.27C473.703 194.574 473.957 195.602 474.465 196.352C474.98 197.094 475.672 197.465 476.539 197.465C478.367 197.465 479.309 196.145 479.363 193.504V192.074C479.363 190.777 479.105 189.754 478.59 189.004C478.074 188.246 477.383 187.867 476.516 187.867C475.664 187.867 474.98 188.246 474.465 189.004C473.957 189.754 473.703 190.773 473.703 192.062V193.27ZM490.578 197.887C489.891 198.785 488.887 199.234 487.566 199.234C486.418 199.234 485.551 198.84 484.965 198.051C484.379 197.254 484.082 196.098 484.074 194.582V186.32H486.137V194.43C486.137 196.406 486.73 197.395 487.918 197.395C489.176 197.395 490.043 196.832 490.52 195.707V186.32H492.594V199H490.625L490.578 197.887ZM495.852 197.863C495.852 197.488 495.961 197.176 496.18 196.926C496.406 196.676 496.742 196.551 497.188 196.551C497.633 196.551 497.969 196.676 498.195 196.926C498.43 197.176 498.547 197.488 498.547 197.863C498.547 198.223 498.43 198.523 498.195 198.766C497.969 199.008 497.633 199.129 497.188 199.129C496.742 199.129 496.406 199.008 496.18 198.766C495.961 198.523 495.852 198.223 495.852 197.863ZM167.586 222.688C167.586 221.836 167.355 221.184 166.895 220.73C166.434 220.277 165.602 219.836 164.398 219.406C163.195 218.977 162.273 218.527 161.633 218.059C161 217.582 160.523 217.043 160.203 216.441C159.891 215.832 159.734 215.137 159.734 214.355C159.734 213.004 160.184 211.891 161.082 211.016C161.988 210.141 163.172 209.703 164.633 209.703C165.633 209.703 166.523 209.93 167.305 210.383C168.086 210.828 168.688 211.449 169.109 212.246C169.531 213.043 169.742 213.918 169.742 214.871H167.586C167.586 213.816 167.332 213 166.824 212.422C166.316 211.844 165.586 211.555 164.633 211.555C163.766 211.555 163.094 211.797 162.617 212.281C162.141 212.766 161.902 213.445 161.902 214.32C161.902 215.039 162.16 215.641 162.676 216.125C163.191 216.609 163.988 217.043 165.066 217.426C166.746 217.98 167.945 218.664 168.664 219.477C169.391 220.289 169.754 221.352 169.754 222.664C169.754 224.047 169.305 225.156 168.406 225.992C167.508 226.82 166.285 227.234 164.738 227.234C163.746 227.234 162.828 227.02 161.984 226.59C161.148 226.152 160.488 225.543 160.004 224.762C159.527 223.973 159.289 223.07 159.289 222.055H161.445C161.445 223.109 161.738 223.93 162.324 224.516C162.918 225.102 163.723 225.395 164.738 225.395C165.684 225.395 166.395 225.152 166.871 224.668C167.348 224.184 167.586 223.523 167.586 222.688ZM171.852 220.074C171.852 218.23 172.297 216.773 173.188 215.703C174.086 214.625 175.27 214.086 176.738 214.086C178.207 214.086 179.387 214.609 180.277 215.656C181.176 216.703 181.637 218.129 181.66 219.934V221.27C181.66 223.105 181.215 224.559 180.324 225.629C179.434 226.699 178.246 227.234 176.762 227.234C175.293 227.234 174.113 226.715 173.223 225.676C172.34 224.637 171.883 223.23 171.852 221.457V220.074ZM173.926 221.27C173.926 222.574 174.18 223.602 174.688 224.352C175.203 225.094 175.895 225.465 176.762 225.465C178.59 225.465 179.531 224.145 179.586 221.504V220.074C179.586 218.777 179.328 217.754 178.812 217.004C178.297 216.246 177.605 215.867 176.738 215.867C175.887 215.867 175.203 216.246 174.688 217.004C174.18 217.754 173.926 218.773 173.926 220.062V221.27ZM188.738 225.465C189.426 225.465 189.977 225.254 190.391 224.832C190.805 224.402 191.031 223.793 191.07 223.004H193.027C192.98 224.223 192.547 225.234 191.727 226.039C190.914 226.836 189.918 227.234 188.738 227.234C187.168 227.234 185.969 226.742 185.141 225.758C184.32 224.766 183.91 223.293 183.91 221.34V219.945C183.91 218.031 184.32 216.578 185.141 215.586C185.961 214.586 187.156 214.086 188.727 214.086C190.023 214.086 191.051 214.496 191.809 215.316C192.574 216.137 192.98 217.258 193.027 218.68H191.07C191.023 217.742 190.797 217.039 190.391 216.57C189.992 216.102 189.438 215.867 188.727 215.867C187.805 215.867 187.121 216.172 186.676 216.781C186.23 217.383 186 218.375 185.984 219.758V221.375C185.984 222.867 186.203 223.922 186.641 224.539C187.086 225.156 187.785 225.465 188.738 225.465ZM197.656 227H195.582V214.32H197.656V227ZM197.82 210.957C197.82 211.309 197.723 211.602 197.527 211.836C197.332 212.07 197.035 212.188 196.637 212.188C196.246 212.188 195.953 212.07 195.758 211.836C195.562 211.602 195.465 211.309 195.465 210.957C195.465 210.605 195.562 210.309 195.758 210.066C195.953 209.824 196.246 209.703 196.637 209.703C197.027 209.703 197.32 209.828 197.516 210.078C197.719 210.32 197.82 210.613 197.82 210.957ZM205.461 227.234C203.883 227.234 202.672 226.766 201.828 225.828C200.984 224.883 200.555 223.5 200.539 221.68V220.145C200.539 218.254 200.949 216.773 201.77 215.703C202.598 214.625 203.75 214.086 205.227 214.086C206.711 214.086 207.82 214.559 208.555 215.504C209.289 216.449 209.664 217.922 209.68 219.922V221.281H202.602V221.574C202.602 222.934 202.855 223.922 203.363 224.539C203.879 225.156 204.617 225.465 205.578 225.465C206.188 225.465 206.723 225.352 207.184 225.125C207.652 224.891 208.09 224.523 208.496 224.023L209.574 225.336C208.676 226.602 207.305 227.234 205.461 227.234ZM205.227 215.867C204.367 215.867 203.73 216.164 203.316 216.758C202.902 217.344 202.668 218.258 202.613 219.5H207.605V219.219C207.551 218.016 207.332 217.156 206.949 216.641C206.574 216.125 206 215.867 205.227 215.867ZM214.895 211.25V214.32H216.805V215.996H214.895V223.859C214.895 224.359 214.977 224.738 215.141 224.996C215.305 225.254 215.586 225.383 215.984 225.383C216.258 225.383 216.535 225.336 216.816 225.242L216.793 227C216.324 227.156 215.844 227.234 215.352 227.234C214.531 227.234 213.906 226.941 213.477 226.355C213.047 225.77 212.832 224.941 212.832 223.871V215.996H210.898V214.32H212.832V211.25H214.895ZM222.746 223.555L225.055 214.32H227.258L223.109 228.793C222.797 229.879 222.355 230.703 221.785 231.266C221.215 231.836 220.566 232.121 219.84 232.121C219.559 232.121 219.199 232.059 218.762 231.934V230.176L219.219 230.223C219.82 230.223 220.289 230.078 220.625 229.789C220.969 229.508 221.246 229.016 221.457 228.312L221.867 226.895L218.141 214.32H220.402L222.746 223.555ZM235.707 227V215.996H234.055V214.32H235.707V212.855C235.73 211.566 236.055 210.562 236.68 209.844C237.312 209.117 238.203 208.754 239.352 208.754C239.766 208.754 240.184 208.82 240.605 208.953L240.5 210.711C240.203 210.641 239.887 210.605 239.551 210.605C238.371 210.605 237.781 211.445 237.781 213.125V214.32H239.949V215.996H237.781V227H235.707ZM241.953 220.074C241.953 218.23 242.398 216.773 243.289 215.703C244.188 214.625 245.371 214.086 246.84 214.086C248.309 214.086 249.488 214.609 250.379 215.656C251.277 216.703 251.738 218.129 251.762 219.934V221.27C251.762 223.105 251.316 224.559 250.426 225.629C249.535 226.699 248.348 227.234 246.863 227.234C245.395 227.234 244.215 226.715 243.324 225.676C242.441 224.637 241.984 223.23 241.953 221.457V220.074ZM244.027 221.27C244.027 222.574 244.281 223.602 244.789 224.352C245.305 225.094 245.996 225.465 246.863 225.465C248.691 225.465 249.633 224.145 249.688 221.504V220.074C249.688 218.777 249.43 217.754 248.914 217.004C248.398 216.246 247.707 215.867 246.84 215.867C245.988 215.867 245.305 216.246 244.789 217.004C244.281 217.754 244.027 218.773 244.027 220.062V221.27ZM259.672 216.266C259.383 216.211 259.07 216.184 258.734 216.184C257.672 216.184 256.93 216.766 256.508 217.93V227H254.434V214.32H256.449L256.484 215.609C257.039 214.594 257.824 214.086 258.84 214.086C259.168 214.086 259.441 214.141 259.66 214.25L259.672 216.266ZM276.418 221.27C276.418 223.277 276.055 224.773 275.328 225.758C274.609 226.742 273.59 227.234 272.27 227.234C270.996 227.234 270.016 226.754 269.328 225.793V231.875H267.266V214.32H269.141L269.246 215.727C269.941 214.633 270.938 214.086 272.234 214.086C273.625 214.086 274.664 214.57 275.352 215.539C276.039 216.508 276.395 217.957 276.418 219.887V221.27ZM274.355 220.086C274.355 218.664 274.137 217.617 273.699 216.945C273.262 216.266 272.559 215.926 271.59 215.926C270.598 215.926 269.844 216.422 269.328 217.414V224.012C269.836 224.98 270.598 225.465 271.613 225.465C272.551 225.465 273.238 225.129 273.676 224.457C274.121 223.777 274.348 222.742 274.355 221.352V220.086ZM283.625 227.234C282.047 227.234 280.836 226.766 279.992 225.828C279.148 224.883 278.719 223.5 278.703 221.68V220.145C278.703 218.254 279.113 216.773 279.934 215.703C280.762 214.625 281.914 214.086 283.391 214.086C284.875 214.086 285.984 214.559 286.719 215.504C287.453 216.449 287.828 217.922 287.844 219.922V221.281H280.766V221.574C280.766 222.934 281.02 223.922 281.527 224.539C282.043 225.156 282.781 225.465 283.742 225.465C284.352 225.465 284.887 225.352 285.348 225.125C285.816 224.891 286.254 224.523 286.66 224.023L287.738 225.336C286.84 226.602 285.469 227.234 283.625 227.234ZM283.391 215.867C282.531 215.867 281.895 216.164 281.48 216.758C281.066 217.344 280.832 218.258 280.777 219.5H285.77V219.219C285.715 218.016 285.496 217.156 285.113 216.641C284.738 216.125 284.164 215.867 283.391 215.867ZM293.059 211.25V214.32H294.969V215.996H293.059V223.859C293.059 224.359 293.141 224.738 293.305 224.996C293.469 225.254 293.75 225.383 294.148 225.383C294.422 225.383 294.699 225.336 294.98 225.242L294.957 227C294.488 227.156 294.008 227.234 293.516 227.234C292.695 227.234 292.07 226.941 291.641 226.355C291.211 225.77 290.996 224.941 290.996 223.871V215.996H289.062V214.32H290.996V211.25H293.059ZM305.188 227H303.113V209H305.188V227ZM308.023 220.074C308.023 218.23 308.469 216.773 309.359 215.703C310.258 214.625 311.441 214.086 312.91 214.086C314.379 214.086 315.559 214.609 316.449 215.656C317.348 216.703 317.809 218.129 317.832 219.934V221.27C317.832 223.105 317.387 224.559 316.496 225.629C315.605 226.699 314.418 227.234 312.934 227.234C311.465 227.234 310.285 226.715 309.395 225.676C308.512 224.637 308.055 223.23 308.023 221.457V220.074ZM310.098 221.27C310.098 222.574 310.352 223.602 310.859 224.352C311.375 225.094 312.066 225.465 312.934 225.465C314.762 225.465 315.703 224.145 315.758 221.504V220.074C315.758 218.777 315.5 217.754 314.984 217.004C314.469 216.246 313.777 215.867 312.91 215.867C312.059 215.867 311.375 216.246 310.859 217.004C310.352 217.754 310.098 218.773 310.098 220.062V221.27ZM323.914 223.848L326.316 214.32H328.426L324.664 227H323.117L319.309 214.32H321.418L323.914 223.848ZM334.953 227.234C333.375 227.234 332.164 226.766 331.32 225.828C330.477 224.883 330.047 223.5 330.031 221.68V220.145C330.031 218.254 330.441 216.773 331.262 215.703C332.09 214.625 333.242 214.086 334.719 214.086C336.203 214.086 337.312 214.559 338.047 215.504C338.781 216.449 339.156 217.922 339.172 219.922V221.281H332.094V221.574C332.094 222.934 332.348 223.922 332.855 224.539C333.371 225.156 334.109 225.465 335.07 225.465C335.68 225.465 336.215 225.352 336.676 225.125C337.145 224.891 337.582 224.523 337.988 224.023L339.066 225.336C338.168 226.602 336.797 227.234 334.953 227.234ZM334.719 215.867C333.859 215.867 333.223 216.164 332.809 216.758C332.395 217.344 332.16 218.258 332.105 219.5H337.098V219.219C337.043 218.016 336.824 217.156 336.441 216.641C336.066 216.125 335.492 215.867 334.719 215.867ZM346.906 216.266C346.617 216.211 346.305 216.184 345.969 216.184C344.906 216.184 344.164 216.766 343.742 217.93V227H341.668V214.32H343.684L343.719 215.609C344.273 214.594 345.059 214.086 346.074 214.086C346.402 214.086 346.676 214.141 346.895 214.25L346.906 216.266ZM355.145 223.754C355.145 223.309 354.977 222.926 354.641 222.605C354.305 222.285 353.656 221.91 352.695 221.48C351.578 221.02 350.789 220.625 350.328 220.297C349.875 219.969 349.535 219.598 349.309 219.184C349.082 218.762 348.969 218.262 348.969 217.684C348.969 216.652 349.344 215.797 350.094 215.117C350.852 214.43 351.816 214.086 352.988 214.086C354.223 214.086 355.215 214.445 355.965 215.164C356.715 215.883 357.09 216.805 357.09 217.93H355.027C355.027 217.359 354.836 216.875 354.453 216.477C354.07 216.07 353.582 215.867 352.988 215.867C352.379 215.867 351.898 216.027 351.547 216.348C351.203 216.66 351.031 217.082 351.031 217.613C351.031 218.035 351.156 218.375 351.406 218.633C351.664 218.891 352.277 219.23 353.246 219.652C354.785 220.254 355.832 220.844 356.387 221.422C356.941 221.992 357.219 222.719 357.219 223.602C357.219 224.703 356.84 225.586 356.082 226.25C355.324 226.906 354.309 227.234 353.035 227.234C351.715 227.234 350.645 226.855 349.824 226.098C349.004 225.34 348.594 224.379 348.594 223.215H350.68C350.703 223.918 350.918 224.469 351.324 224.867C351.73 225.266 352.301 225.465 353.035 225.465C353.723 225.465 354.246 225.312 354.605 225.008C354.965 224.695 355.145 224.277 355.145 223.754ZM360.066 225.863C360.066 225.488 360.176 225.176 360.395 224.926C360.621 224.676 360.957 224.551 361.402 224.551C361.848 224.551 362.184 224.676 362.41 224.926C362.645 225.176 362.762 225.488 362.762 225.863C362.762 226.223 362.645 226.523 362.41 226.766C362.184 227.008 361.848 227.129 361.402 227.129C360.957 227.129 360.621 227.008 360.395 226.766C360.176 226.523 360.066 226.223 360.066 225.863Z" fill="#456252"/>
<path d="M270.57 131V143H263.68V108.875H275.305C278.68 108.875 281.367 109.922 283.367 112.016C285.383 114.109 286.391 116.828 286.391 120.172C286.391 123.516 285.398 126.156 283.414 128.094C281.43 130.031 278.68 131 275.164 131H270.57ZM270.57 125.258H275.305C276.617 125.258 277.633 124.828 278.352 123.969C279.07 123.109 279.43 121.859 279.43 120.219C279.43 118.516 279.062 117.164 278.328 116.164C277.594 115.148 276.609 114.633 275.375 114.617H270.57V125.258ZM308.633 128.234H297.898V137.281H310.602V143H291.008V108.875H310.555V114.617H297.898V122.68H308.633V128.234ZM337.156 114.617H328.719V143H321.805V114.617H313.508V108.875H337.156V114.617Z" fill="#BF764C"/>
</svg>
